<?xml version="1.0" standalone="no"?>
<!DOCTYPE svg PUBLIC "-//W3C//DTD SVG 20010904//EN"
 "http://www.w3.org/TR/2001/REC-SVG-20010904/DTD/svg10.dtd">
<svg version="1.0" xmlns="http://www.w3.org/2000/svg"
 width="750.000000pt" height="750.000000pt" viewBox="0 0 750.000000 750.000000"
 preserveAspectRatio="xMidYMid meet">
<metadata>
Created by potrace 1.14, written by Peter Selinger 2001-2017
</metadata>
<g transform="translate(0.000000,750.000000) scale(0.100000,-0.100000)"
fill="#000000" stroke="none">
<path d="M5678 7115 c-2 -2 -34 -6 -73 -9 -73 -6 -78 -7 -215 -32 -176 -31
-359 -84 -360 -103 -1 -3 -11 -19 -24 -35 l-23 -28 -44 20 c-24 10 -52 28 -61
39 -17 19 -17 20 8 42 24 21 25 23 9 41 -41 45 -105 46 -195 1 -73 -36 -126
-77 -194 -146 -94 -97 -103 -130 -59 -220 l27 -55 -19 -56 c-23 -67 -38 -80
-200 -164 -178 -93 -207 -110 -238 -142 -27 -27 -28 -34 -24 -86 3 -32 9 -74
13 -94 3 -20 4 -52 0 -71 -6 -31 -14 -38 -72 -66 -46 -22 -90 -56 -151 -116
-94 -93 -86 -91 -143 -35 -8 8 -36 32 -62 53 -26 21 -53 43 -60 50 -30 29
-140 96 -168 102 -17 4 -49 27 -77 58 -141 151 -213 211 -319 265 -59 30 -189
129 -269 206 -58 55 -142 118 -165 122 -3 0 -12 4 -20 7 -39 16 -101 14 -280
-8 -37 -5 -159 -26 -230 -40 -118 -24 -270 -76 -270 -93 0 -4 -9 -18 -19 -31
l-19 -24 -55 27 c-65 31 -76 50 -42 72 20 13 23 20 15 35 -13 23 -58 46 -86
44 -92 -8 -204 -73 -308 -179 -94 -97 -103 -130 -60 -224 l26 -57 -18 -53
c-22 -67 -40 -80 -219 -173 -242 -125 -261 -145 -242 -244 28 -142 22 -166
-56 -203 -34 -17 -90 -56 -124 -86 -105 -96 -213 -246 -213 -296 0 -32 -36
-116 -73 -173 -43 -65 -55 -101 -51 -153 5 -79 78 -188 149 -224 42 -21 183
-119 192 -133 4 -7 15 -33 24 -59 37 -104 130 -208 199 -223 19 -4 45 1 75 15
53 24 98 21 128 -9 20 -19 20 -20 -17 -35 -44 -18 -49 -51 -10 -66 14 -6 85
-9 157 -7 181 4 299 -18 277 -53 -7 -12 -38 -15 -157 -17 -165 -2 -209 -7
-216 -27 -8 -21 44 -97 99 -144 60 -51 103 -73 216 -107 49 -15 88 -31 88 -36
0 -5 5 -9 11 -9 19 0 116 -69 164 -118 26 -26 64 -75 83 -109 20 -35 40 -63
44 -63 4 0 8 -6 8 -13 0 -7 10 -23 23 -37 12 -14 34 -41 49 -61 15 -20 60 -72
100 -115 40 -43 80 -85 88 -94 8 -10 32 -35 53 -57 l37 -39 -24 -70 c-13 -38
-38 -102 -55 -143 -17 -41 -31 -80 -31 -88 0 -8 -5 -11 -12 -7 -6 4 -8 3 -4
-4 3 -6 1 -23 -6 -39 -6 -15 -11 -31 -10 -35 1 -5 -3 -8 -8 -8 -5 0 -9 -3 -9
-7 1 -5 1 -10 -1 -13 -1 -3 -4 -16 -6 -30 -2 -13 -8 -27 -13 -30 -8 -5 -25
-60 -23 -72 1 -5 -3 -8 -9 -8 -5 0 -7 -5 -4 -10 4 -6 1 -18 -7 -27 -7 -9 -13
-19 -13 -22 0 -3 -4 -5 -10 -3 -6 2 -5 -1 1 -8 13 -13 -5 -80 -21 -80 -5 0 -3
-5 5 -11 12 -9 11 -10 -7 -6 -13 3 -23 1 -23 -4 0 -5 7 -9 15 -9 18 0 19 -12
3 -28 -15 -15 -31 -16 -22 0 4 7 3 8 -5 4 -19 -12 -1 -27 22 -20 19 6 20 5 10
-8 -7 -8 -10 -18 -6 -21 3 -4 1 -7 -6 -7 -7 0 -9 -4 -6 -10 3 -5 1 -10 -6 -10
-7 0 -10 -3 -6 -6 8 -8 -11 -27 -42 -43 -19 -11 -22 -11 -16 1 9 18 -24 -23
-36 -44 -6 -11 -5 -19 3 -24 7 -4 8 -3 4 4 -4 7 -2 12 5 12 6 0 9 -8 6 -20 -3
-13 -1 -18 6 -13 7 4 8 0 4 -11 -4 -10 -3 -15 4 -11 5 4 7 14 4 24 -4 14 1 17
27 15 47 -2 50 -3 43 -13 -3 -5 -1 -13 5 -16 6 -4 9 -1 8 7 -2 10 15 13 69 13
39 0 69 -3 67 -7 -3 -5 0 -8 6 -8 6 0 8 -4 5 -10 -4 -6 1 -7 11 -3 11 4 13 8
6 11 -17 5 -15 19 3 19 8 0 15 -5 15 -11 0 -6 5 -4 11 4 9 12 10 11 6 -6 -2
-12 0 -29 6 -39 8 -15 7 -17 -7 -12 -9 4 -15 3 -12 -2 3 -5 -1 -12 -10 -15 -8
-3 -12 -10 -9 -16 4 -6 -4 -9 -17 -7 -15 1 -22 -3 -20 -12 2 -8 -3 -11 -13 -8
-8 4 -15 2 -15 -4 0 -6 8 -9 18 -7 9 2 16 9 15 16 -2 7 7 11 20 9 13 -1 21 3
20 11 -5 22 17 13 26 -12 7 -16 17 -23 33 -22 13 1 22 7 21 14 -3 14 13 16 22
3 3 -5 -5 -17 -17 -25 -12 -9 -18 -16 -14 -16 5 0 18 7 28 17 17 15 18 15 18
-6 0 -12 -4 -20 -9 -16 -17 10 -24 -18 -8 -30 9 -7 13 -16 9 -20 -4 -5 -1 -5
7 0 12 7 11 10 -2 20 -18 13 -24 30 -7 20 14 -9 24 21 14 43 -4 9 -7 20 -6 23
1 3 -9 6 -21 5 -12 -1 -21 -7 -19 -14 4 -20 -32 -9 -44 13 -8 15 -6 23 5 31
12 9 13 15 4 26 -8 9 -9 19 -3 28 6 8 10 12 10 8 0 -4 12 -3 26 2 16 7 23 7
19 0 -8 -13 1 -13 27 1 15 8 19 8 14 0 -4 -6 -3 -11 3 -11 5 0 13 5 17 11 5 8
9 8 14 -1 6 -9 12 -9 30 0 18 10 21 9 15 -1 -6 -9 -3 -10 8 -6 10 4 24 10 32
13 8 3 15 1 15 -6 0 -6 -5 -8 -12 -4 -9 5 -9 2 1 -9 16 -20 1 -23 -18 -4 -11
10 -11 8 0 -10 10 -16 16 -19 26 -11 9 7 13 7 13 -1 0 -25 -32 -24 -53 3 -17
20 -25 24 -37 16 -13 -9 -12 -10 4 -8 10 2 21 -3 23 -10 3 -8 -1 -10 -14 -5
-16 6 -16 5 -3 -8 17 -16 58 -22 75 -10 18 13 55 11 55 -5 0 -8 0 -17 1 -21 0
-4 -4 -9 -10 -11 -7 -2 -8 3 -4 14 6 15 4 15 -13 -2 -11 -10 -16 -21 -12 -22
5 -2 5 -8 2 -14 -3 -5 10 1 30 14 20 13 36 27 36 31 0 5 -4 5 -10 2 -5 -3 -10
1 -10 10 0 9 4 14 9 11 4 -3 7 9 6 27 l-3 33 56 1 c32 1 57 2 57 3 0 1 8 3 18
5 9 2 15 -1 11 -6 -3 -5 0 -9 5 -9 6 0 11 5 11 10 0 6 4 10 8 10 13 0 8 -48
-5 -62 -7 -6 -13 -16 -13 -22 0 -5 9 2 21 15 22 26 40 31 51 14 5 -6 8 -6 8 3
0 6 4 12 10 12 5 0 7 -8 3 -17 -5 -14 -3 -15 7 -6 18 16 3 34 -26 29 -13 -3
-24 0 -24 5 0 6 -4 7 -10 4 -12 -8 -13 5 -1 23 7 11 9 11 14 -2 4 -9 14 -15
24 -15 17 1 17 2 0 6 -20 5 -13 23 9 23 8 0 14 -7 14 -15 0 -7 7 -18 16 -23
13 -7 14 -13 5 -30 -14 -26 -14 -32 1 -32 6 0 8 3 5 6 -3 4 -2 15 3 25 12 21
2 52 -13 42 -6 -4 -8 2 -5 15 4 12 2 20 -3 16 -5 -3 -9 -2 -9 3 0 4 11 13 25
20 14 6 23 7 19 2 -3 -5 -1 -9 5 -9 5 0 12 4 15 9 3 5 25 9 48 9 24 1 51 2 62
4 12 2 20 -4 21 -15 4 -19 -23 -20 -38 -2 -5 6 -7 4 -4 -5 2 -8 14 -15 28 -15
20 0 24 4 22 28 -2 26 0 27 14 15 15 -11 16 -11 10 5 -3 9 -3 17 1 17 26 0 54
122 31 136 -6 3 -5 12 3 22 7 9 8 13 2 9 -14 -8 -40 75 -29 92 3 7 1 10 -6 9
-6 -2 -16 11 -22 27 -5 17 -14 33 -19 36 -6 4 -11 18 -11 32 -1 14 -5 23 -10
20 -4 -2 -11 7 -16 20 -6 14 -15 28 -21 32 -14 9 -2 27 13 19 7 -4 8 -3 4 2
-5 5 -15 9 -24 9 -9 0 -21 9 -27 20 -6 10 -16 25 -23 32 -6 7 -10 24 -9 38 2
13 0 22 -5 20 -8 -6 -28 95 -21 108 2 4 11 -1 20 -11 31 -36 114 -81 171 -93
31 -7 64 -19 75 -28 10 -9 19 -14 20 -12 2 8 46 -11 46 -20 0 -5 8 -9 18 -9
10 0 28 -9 40 -20 12 -11 24 -20 26 -20 18 0 108 -89 101 -99 -3 -5 0 -13 6
-17 8 -4 9 -3 5 4 -4 7 -3 12 3 12 5 0 13 -9 16 -20 3 -11 11 -20 16 -20 5 0
9 -9 9 -20 0 -11 5 -20 10 -20 6 0 10 -5 10 -12 0 -12 79 -121 92 -126 4 -2 8
-13 8 -23 0 -11 4 -18 9 -15 5 3 19 -10 32 -29 13 -19 27 -35 32 -35 4 0 7 -7
7 -16 0 -8 5 -12 10 -9 9 6 14 -8 11 -27 0 -5 3 -7 8 -5 5 1 50 -39 98 -90
l89 -91 -25 -70 c-15 -39 -29 -74 -34 -78 -4 -4 -7 -14 -7 -23 0 -9 -6 -28
-14 -42 -7 -15 -22 -51 -31 -80 -10 -30 -23 -60 -29 -68 -6 -8 -10 -16 -8 -18
6 -9 1 -23 -8 -18 -6 3 -7 -1 -4 -9 3 -9 1 -16 -6 -16 -6 0 -9 -4 -6 -9 10
-15 -35 -121 -48 -114 -6 4 -5 0 2 -9 13 -16 2 -34 -12 -21 -4 4 -14 8 -22 9
-9 1 -13 -1 -9 -4 4 -4 10 -7 13 -7 25 -1 31 -17 17 -46 -9 -16 -13 -29 -9
-29 4 0 1 -6 -5 -13 -6 -8 -8 -17 -4 -20 3 -4 0 -7 -8 -7 -11 0 -11 -2 1 -10
12 -8 12 -10 -5 -11 -11 0 -14 -3 -7 -6 6 -2 9 -9 6 -15 -3 -5 -8 -22 -9 -36
-2 -15 -5 -35 -7 -44 -5 -22 -48 -68 -63 -68 -18 0 -55 -39 -55 -58 0 -15 2
-15 10 -2 8 13 10 12 10 -2 0 -10 5 -18 11 -18 5 0 7 4 4 10 -3 5 -1 10 4 10
6 0 11 -4 11 -10 0 -5 5 -10 11 -10 5 0 8 4 4 9 -3 6 4 8 17 5 20 -4 71 -8
168 -13 20 -1 22 -3 10 -11 -10 -7 -11 -10 -2 -10 7 0 15 7 18 15 5 11 10 13
19 5 7 -6 15 -7 17 -3 3 4 3 2 2 -4 -2 -7 1 -13 6 -13 6 0 10 4 10 9 0 5 25
10 55 10 58 0 68 -9 35 -32 -18 -12 -18 -15 -6 -20 9 -4 13 -13 10 -22 -3 -8
-2 -15 3 -15 5 0 9 9 10 20 1 11 -3 20 -8 20 -6 0 -7 5 -3 12 5 8 11 6 19 -6
11 -15 13 -14 18 6 l6 22 23 -21 c13 -11 30 -20 38 -21 8 0 24 -3 35 -7 11 -4
16 -3 10 2 -5 4 -18 22 -27 39 l-17 31 24 -5 c14 -2 25 -9 25 -14 0 -5 -5 -6
-11 -2 -8 5 -8 1 0 -14 16 -31 32 -37 43 -17 8 14 12 15 19 4 11 -17 11 -29 2
-28 -17 3 -33 -1 -32 -8 3 -20 -2 -33 -13 -30 -18 3 -20 -26 -3 -48 15 -20 15
-20 8 0 -6 18 -5 18 10 6 11 -9 17 -10 17 -2 0 10 -13 15 -32 12 -5 0 -8 6 -8
15 0 8 4 13 10 9 5 -3 16 7 24 22 8 15 18 27 23 26 4 -2 8 10 7 25 0 15 -6 26
-11 25 -6 -1 -13 3 -16 10 -3 9 14 12 63 13 67 0 68 0 64 -24 -3 -15 -1 -21 6
-17 6 4 9 13 6 21 -3 7 0 16 5 20 18 11 79 14 79 3 0 -5 5 -9 11 -9 5 0 7 4 4
10 -3 5 6 12 20 16 14 3 25 10 25 16 0 5 5 6 10 3 12 -7 14 -26 3 -24 -20 3
-31 -2 -37 -17 -8 -20 11 -44 33 -43 11 0 10 3 -6 11 -27 13 -29 21 -6 39 15
12 16 12 10 -3 -10 -27 11 -31 39 -9 18 14 22 21 11 21 -8 0 -17 -7 -21 -15
-3 -8 -10 -15 -16 -15 -7 0 -8 6 0 19 5 11 7 26 4 34 -6 17 31 27 88 22 21 -1
38 1 38 5 0 4 10 6 22 5 12 -1 31 7 42 17 11 10 27 18 35 18 14 0 14 1 1 10
-10 6 -11 10 -2 10 6 0 12 12 12 28 0 15 6 34 13 41 7 9 7 11 1 8 -17 -9 -25
18 -11 33 9 10 9 11 -2 5 -9 -5 -12 -3 -9 6 3 8 11 13 17 12 6 -2 11 2 11 8 0
6 -8 8 -18 5 -14 -5 -20 3 -31 38 -7 25 -10 50 -6 56 3 6 2 9 -3 8 -6 -2 -10
1 -10 6 0 5 -4 12 -9 15 -5 3 -17 26 -28 51 -11 25 -22 47 -26 50 -3 3 -19 25
-34 50 -15 25 -33 48 -39 52 -6 5 -7 8 -1 8 6 0 4 4 -2 8 -7 4 -14 17 -16 27
-2 11 -8 29 -13 40 -13 30 -10 273 4 322 7 23 29 59 50 81 66 69 316 243 432
302 25 12 48 27 51 32 3 5 9 9 13 9 3 -1 20 6 36 14 17 9 30 13 30 11 0 -3 15
0 33 6 33 12 99 72 89 82 -3 3 0 6 7 6 7 0 9 5 6 10 -3 6 2 10 12 11 10 0 13
3 6 5 -8 4 -8 12 3 32 8 15 14 35 14 44 0 9 5 20 10 23 6 4 8 11 5 16 -4 5 -2
9 3 9 5 0 9 14 10 31 1 40 10 49 28 25 8 -11 14 -16 14 -11 0 5 -6 16 -14 24
-16 18 -11 101 6 101 5 0 4 9 -2 19 -6 12 -6 22 -1 25 5 4 8 13 7 22 -2 15 4
59 18 129 17 82 80 246 109 283 13 16 27 -2 27 -34 0 -11 6 -28 13 -37 11 -16
15 -16 57 5 25 12 62 40 83 61 39 40 45 37 25 -10 -6 -15 -12 -30 -13 -33 -5
-24 -49 -127 -57 -137 -6 -7 -7 -13 -2 -13 4 0 3 -5 -4 -12 -7 -7 -12 -19 -12
-28 0 -8 -7 -28 -15 -44 -8 -15 -12 -32 -9 -37 3 -5 0 -9 -5 -9 -6 0 -11 -7
-11 -15 0 -8 -5 -15 -11 -15 -5 0 -7 -5 -4 -11 4 -5 -1 -20 -12 -31 -10 -12
-12 -18 -5 -14 12 7 7 -10 -20 -69 -5 -12 -10 -27 -12 -35 -17 -88 -18 -91
-34 -78 -13 11 -14 10 -4 -9 15 -28 15 -36 0 -27 -10 6 -10 4 -2 -7 5 -8 9
-20 8 -26 -1 -7 -2 -18 -3 -24 0 -5 -7 -7 -13 -3 -9 5 -9 2 1 -9 16 -20 2 -23
-18 -4 -9 8 -12 8 -7 0 3 -6 3 -13 -1 -16 -5 -2 -3 -2 4 -1 22 5 21 -11 -3
-33 l-23 -23 -16 22 c-8 13 -15 18 -15 12 0 -5 6 -16 13 -23 10 -11 9 -13 -6
-8 -10 4 -15 3 -12 -2 3 -5 -3 -16 -14 -23 -33 -23 -10 -39 61 -42 38 -1 49
-10 26 -19 -10 -4 -10 -6 0 -6 7 -1 15 5 18 12 5 14 84 11 84 -4 0 -5 8 -9 18
-9 14 0 15 2 2 9 -9 7 3 9 38 8 30 -1 50 -6 48 -12 -2 -5 -10 -9 -19 -9 -9 1
-14 -2 -11 -7 3 -5 0 -9 -5 -9 -6 0 -11 -5 -11 -11 0 -6 8 -4 20 4 11 8 34 13
49 11 19 -2 34 3 43 14 11 15 11 16 -2 6 -8 -6 -25 -11 -38 -12 -20 -1 -22 1
-11 15 9 10 15 11 17 4 2 -6 8 -9 13 -5 16 9 49 13 49 5 0 -19 -48 -51 -66
-45 -18 6 -18 6 1 -9 22 -18 39 -22 31 -8 -4 5 -3 11 2 13 4 1 17 16 30 32 28
36 29 14 1 -25 -11 -16 -17 -29 -12 -29 4 -1 -5 -8 -20 -16 -25 -14 -33 -42
-10 -37 5 1 15 -8 22 -19 11 -18 11 -20 -3 -15 -9 4 -16 2 -16 -3 0 -11 23
-14 33 -4 9 9 -24 55 -34 48 -5 -3 -9 -2 -9 3 0 4 14 16 31 26 18 10 29 20 26
24 -11 10 13 42 27 37 8 -3 27 2 41 12 36 23 85 26 86 5 1 -9 1 -20 0 -25 -1
-4 3 -14 9 -20 5 -7 7 -16 3 -19 -8 -9 -36 30 -29 41 2 4 1 14 -5 22 -6 11 -9
12 -9 2 0 -7 -4 -10 -10 -7 -16 10 -49 -14 -47 -35 1 -11 5 -20 10 -20 5 0 5
9 2 20 -5 14 -2 20 9 20 9 0 19 0 23 1 4 0 9 -4 11 -10 2 -6 -2 -9 -10 -8 -7
2 -10 2 -5 0 4 -3 7 -12 8 -21 0 -14 2 -13 8 2 5 14 10 16 15 8 4 -7 4 -12 -1
-12 -4 0 7 -9 25 -20 32 -20 38 -40 14 -48 -8 -2 -10 3 -6 15 5 15 4 15 -5 3
-17 -24 5 -34 32 -14 24 19 24 19 3 29 -12 6 -22 19 -23 30 -1 11 -4 36 -7 55
-2 19 -2 29 1 22 2 -6 10 -9 16 -5 15 9 117 13 117 4 0 -13 -16 -26 -34 -29
-17 -3 -18 -2 -7 12 9 11 10 16 2 16 -6 0 -11 -4 -11 -10 0 -5 -5 -10 -11 -10
-5 0 -7 6 -3 13 6 9 4 9 -7 -1 -17 -16 -32 -16 -24 1 4 6 -1 3 -9 -7 -19 -23
-20 -32 -6 -41 6 -3 7 1 4 9 -6 15 15 23 41 16 6 -2 24 -4 41 -4 17 -1 38 -7
47 -15 25 -20 21 -5 -5 20 -18 17 -19 21 -5 16 9 -4 17 -2 17 3 0 6 -4 10 -10
10 -5 0 -10 3 -10 8 0 4 27 6 60 6 33 -1 58 1 56 5 -2 3 8 7 22 8 15 0 28 6
30 12 2 6 8 11 14 11 6 0 5 -6 -2 -15 -7 -9 -10 -18 -6 -22 3 -3 6 -2 6 3 0 6
8 19 19 30 23 26 96 31 105 9 3 -10 -1 -15 -14 -15 -10 0 -21 -4 -24 -9 -4 -6
5 -6 21 -2 22 6 27 13 25 31 -4 22 -3 22 13 7 9 -10 21 -17 28 -17 6 0 2 7 -9
15 -18 13 -17 14 9 9 21 -3 27 -1 21 7 -5 8 -2 10 9 6 9 -3 18 1 22 10 4 13 8
14 17 5 7 -7 16 -12 22 -12 5 0 2 6 -8 13 -15 11 -16 18 -8 34 6 11 8 23 5 27
-3 3 -1 6 5 6 8 0 9 7 2 24 -7 20 -6 26 8 29 15 4 15 5 1 6 -21 1 -33 30 -19
46 7 9 6 16 -6 26 -21 17 -44 77 -47 121 -1 9 -5 14 -9 12 -5 -3 -14 7 -21 23
-7 15 -25 47 -40 70 -15 24 -27 47 -27 53 0 6 -4 8 -10 5 -9 -5 -15 16 -11 38
1 5 -3 6 -8 3 -20 -13 -43 104 -44 219 -1 175 27 228 173 334 30 22 60 45 67
51 27 23 213 140 278 175 39 21 75 41 80 45 6 4 26 10 46 14 53 9 83 38 118
109 49 101 78 204 95 342 14 109 18 130 42 214 13 47 40 119 60 159 34 69 53
89 55 57 2 -19 3 -25 13 -53 6 -20 13 -23 34 -17 42 10 98 53 157 119 78 89
90 106 125 174 36 71 49 170 31 242 -7 25 -14 55 -17 68 -2 12 -30 80 -61 150
-47 107 -56 136 -57 187 0 33 3 71 6 85 4 14 14 52 23 85 20 73 21 146 4 188
-41 102 -433 437 -510 437 -9 0 -40 26 -69 58 -138 150 -185 189 -321 265 -69
39 -194 136 -278 215 -91 86 -157 121 -234 126 -31 2 -58 2 -59 1z m-503 -195
c-3 -5 -12 -10 -18 -10 -7 0 -6 4 3 10 19 12 23 12 15 0z m-3310 -450 c-3 -5
-12 -10 -18 -10 -7 0 -6 4 3 10 19 12 23 12 15 0z m4709 -1935 c0 -55 -8 -128
-18 -180 -2 -11 -7 -40 -11 -65 -11 -69 -53 -149 -105 -200 -26 -25 -123 -98
-216 -161 -190 -129 -318 -221 -353 -256 -13 -12 -27 -23 -31 -23 -14 0 -20
45 -19 141 1 134 -12 166 -83 209 -59 36 -62 61 -12 85 19 9 47 19 62 21 15 3
36 8 47 11 23 8 34 10 93 18 24 3 66 10 95 16 29 5 67 12 86 15 57 9 162 45
213 71 89 47 136 115 145 212 8 99 38 152 83 148 24 -2 25 -5 24 -62z m-5032
-461 c15 -8 60 -42 100 -75 40 -34 81 -67 91 -74 16 -11 16 -15 -9 -70 -20
-44 -25 -68 -22 -103 10 -93 71 -183 152 -224 23 -11 43 -24 46 -27 3 -3 37
-28 76 -54 61 -40 73 -54 83 -90 7 -23 18 -48 23 -55 20 -24 -2 -25 -62 -2
-78 29 -171 89 -197 126 -11 16 -33 58 -50 94 -79 171 -260 392 -333 407 -17
3 -30 9 -30 14 0 5 12 31 28 59 23 41 25 52 15 69 -10 16 -10 20 5 24 21 5 48
-1 84 -19z m3866 18 c18 -12 32 -67 38 -157 l5 -80 -51 113 c-27 62 -50 118
-50 123 0 11 40 12 58 1z m-617 -997 c1 -5 4 -14 8 -20 4 -5 6 -19 4 -30 -1
-11 -5 -40 -8 -65 -3 -25 -8 -52 -11 -60 -3 -8 -7 -34 -9 -57 -5 -74 -36 -173
-54 -173 -13 0 -13 -2 -2 -9 10 -7 8 -12 -10 -25 -13 -9 -22 -20 -20 -23 8
-12 -119 -114 -131 -107 -7 4 -8 3 -4 -4 4 -6 -12 -22 -39 -37 -25 -15 -45
-31 -45 -36 0 -5 -3 -8 -7 -7 -5 2 -19 -5 -33 -15 -14 -10 -80 -57 -148 -104
-67 -47 -142 -103 -166 -125 -48 -42 -66 -47 -67 -20 0 9 -2 65 -3 124 -4 121
-20 168 -71 196 -31 18 -65 50 -65 62 0 26 101 59 257 85 56 9 108 18 115 19
31 6 108 18 115 18 5 0 13 3 18 7 6 5 23 11 40 15 49 12 135 55 135 68 0 6 3
9 6 6 7 -8 50 34 47 45 -2 4 1 7 5 7 18 0 38 65 46 149 6 53 19 87 44 109 26
23 53 26 53 7z m-1721 -74 c26 -16 111 -83 145 -115 11 -10 83 -60 160 -111
163 -108 184 -126 192 -166 5 -25 9 -28 34 -24 24 4 31 0 44 -25 9 -16 13 -30
11 -30 -3 0 -1 -12 5 -27 16 -43 22 -313 6 -313 -25 1 -144 47 -205 79 -63 34
-147 115 -136 132 3 5 0 9 -5 9 -6 0 -11 4 -11 10 0 34 -102 198 -182 293 -60
70 -134 137 -159 142 -40 9 -42 16 -12 59 19 29 24 46 20 72 -4 20 -1 35 6 37
17 7 58 -4 87 -22z m-286 -15 c68 -10 95 -23 96 -48 0 -8 -84 -22 -125 -20
-16 0 -63 2 -103 2 -61 2 -72 4 -68 17 3 8 6 23 6 33 0 10 8 20 18 22 23 5
120 1 176 -6z m2636 -571 c-14 -17 -40 -20 -40 -4 0 5 4 8 9 4 5 -3 12 -1 16
5 3 5 11 10 17 10 7 0 6 -6 -2 -15z m-3146 -436 c-2 -4 1 -9 7 -11 17 -6 0
-35 -21 -33 -29 2 -51 24 -38 39 12 13 60 17 52 5z m1508 -1069 c6 0 5 -6 -2
-15 -18 -21 -31 -6 -23 25 6 19 8 21 11 8 2 -10 8 -18 14 -18z m-144 8 c-2 -6
-10 -14 -16 -16 -7 -2 -10 2 -6 12 7 18 28 22 22 4z m52 4 c0 -4 -9 -8 -20 -9
-11 -1 -20 2 -20 8 0 5 9 9 20 9 11 0 20 -4 20 -8z m27 -28 c2 -6 -6 -10 -19
-9 -29 2 -36 23 -7 21 12 0 24 -6 26 -12z"/>
<path d="M4670 2805 c0 -7 30 -13 34 -7 3 4 -4 9 -15 9 -10 1 -19 0 -19 -2z"/>
<path d="M4646 2758 c3 -5 10 -6 15 -3 13 9 11 12 -6 12 -8 0 -12 -4 -9 -9z"/>
<path d="M4587 2659 c7 -7 15 -10 18 -7 3 3 -2 9 -12 12 -14 6 -15 5 -6 -5z"/>
<path d="M4574 2602 c4 -3 14 -7 22 -8 9 -1 13 0 10 4 -4 3 -14 7 -22 8 -9 1
-13 0 -10 -4z"/>
<path d="M2236 1979 c2 -4 13 -7 24 -6 10 1 17 4 14 8 -2 4 -13 7 -24 6 -10
-1 -17 -4 -14 -8z"/>
<path d="M6353 3015 c0 -8 4 -12 9 -9 5 3 6 10 3 15 -9 13 -12 11 -12 -6z"/>
<path d="M5140 3000 c-12 -7 -10 -9 7 -7 12 0 19 5 17 9 -6 10 -6 10 -24 -2z"/>
<path d="M6155 2970 c-4 -6 -11 -7 -17 -4 -7 4 -8 2 -4 -5 6 -9 11 -9 22 0 14
11 18 19 10 19 -3 0 -8 -5 -11 -10z"/>
<path d="M6010 2960 c0 -5 5 -10 11 -10 5 0 7 5 4 10 -3 6 -8 10 -11 10 -2 0
-4 -4 -4 -10z"/>
<path d="M5107 2939 c7 -7 15 -10 18 -7 3 3 -2 9 -12 12 -14 6 -15 5 -6 -5z"/>
<path d="M6175 2920 c-3 -5 -1 -10 4 -10 6 0 11 5 11 10 0 6 -2 10 -4 10 -3 0
-8 -4 -11 -10z"/>
<path d="M5085 2900 c10 -11 20 -20 23 -20 3 0 -3 9 -13 20 -10 11 -20 20 -23
20 -3 0 3 -9 13 -20z"/>
<path d="M6070 2876 c7 -7 13 -7 20 0 6 6 3 10 -10 10 -13 0 -16 -4 -10 -10z"/>
<path d="M6280 2880 c-12 -7 -10 -9 7 -7 12 0 19 5 17 9 -6 10 -6 10 -24 -2z"/>
<path d="M5053 2853 c0 -9 4 -10 14 -2 7 6 13 12 13 14 0 1 -6 2 -13 2 -8 0
-14 -6 -14 -14z"/>
<path d="M6146 2862 c-3 -5 1 -9 9 -9 8 0 12 4 9 9 -3 4 -7 8 -9 8 -2 0 -6 -4
-9 -8z"/>
<path d="M6356 2862 c-3 -5 1 -9 9 -9 8 0 12 4 9 9 -3 4 -7 8 -9 8 -2 0 -6 -4
-9 -8z"/>
<path d="M5081 2836 c-7 -8 -22 -13 -33 -11 -11 3 -18 2 -14 -2 3 -3 0 -13 -6
-22 -10 -12 -7 -12 8 2 11 9 23 15 26 12 3 -3 13 4 23 15 10 11 16 20 13 20
-3 0 -11 -6 -17 -14z"/>
<path d="M6075 2840 c3 -5 8 -10 11 -10 2 0 4 5 4 10 0 6 -5 10 -11 10 -5 0
-7 -4 -4 -10z"/>
<path d="M6431 2827 c-13 -21 -12 -21 5 -5 10 10 16 20 13 22 -3 3 -11 -5 -18
-17z"/>
<path d="M6134 2820 c0 -13 4 -16 10 -10 7 7 7 13 0 20 -6 6 -10 3 -10 -10z"/>
<path d="M4997 2812 c-15 -16 -15 -19 -2 -19 8 0 13 3 10 5 -3 3 0 11 6 19 17
20 5 16 -14 -5z"/>
<path d="M6270 2826 c0 -2 7 -7 16 -10 8 -3 12 -2 9 4 -6 10 -25 14 -25 6z"/>
<path d="M6313 2815 c0 -8 4 -12 9 -9 5 3 6 10 3 15 -9 13 -12 11 -12 -6z"/>
<path d="M6163 2798 c-4 -7 -8 -20 -8 -29 0 -9 -7 -24 -15 -35 -14 -18 -14
-19 7 -1 11 10 20 26 18 35 -1 9 2 23 8 30 5 6 7 12 4 12 -3 0 -9 -6 -14 -12z"/>
<path d="M6199 2803 c-1 -5 -1 -12 0 -17 1 -4 -4 -16 -11 -25 -12 -14 -11 -14
4 -3 9 7 16 22 15 33 -1 19 -6 26 -8 12z"/>
<path d="M6389 2783 c-13 -16 -12 -17 4 -4 16 13 21 21 13 21 -2 0 -10 -8 -17
-17z"/>
<path d="M6315 2780 c-3 -5 -1 -10 4 -10 6 0 11 5 11 10 0 6 -2 10 -4 10 -3 0
-8 -4 -11 -10z"/>
<path d="M6350 2781 c0 -6 4 -12 8 -15 5 -3 9 1 9 9 0 8 -4 15 -9 15 -4 0 -8
-4 -8 -9z"/>
<path d="M4961 2756 c-9 -11 -9 -16 1 -22 7 -4 10 -4 6 1 -4 4 -3 14 3 22 6 7
9 13 6 13 -2 0 -10 -6 -16 -14z"/>
<path d="M6107 2753 c3 -7 6 -13 8 -13 1 0 7 6 13 13 8 10 6 13 -7 13 -11 0
-17 -6 -14 -13z"/>
<path d="M4986 2742 c-3 -5 1 -9 9 -9 8 0 12 4 9 9 -3 4 -7 8 -9 8 -2 0 -6 -4
-9 -8z"/>
<path d="M5060 2740 c8 -5 20 -10 25 -10 6 0 3 5 -5 10 -8 5 -19 10 -25 10 -5
0 -3 -5 5 -10z"/>
<path d="M6255 2740 c-2 -3 5 -7 16 -7 10 -1 19 2 19 6 0 9 -29 10 -35 1z"/>
<path d="M6310 2742 c0 -5 7 -9 15 -9 8 0 12 4 9 9 -3 4 -9 8 -15 8 -5 0 -9
-4 -9 -8z"/>
<path d="M6190 2736 c0 -2 8 -10 18 -17 15 -13 16 -12 3 4 -13 16 -21 21 -21
13z"/>
<path d="M5037 2713 c3 -8 0 -13 -7 -11 -7 2 -14 -3 -15 -10 -2 -7 -1 -8 2 -2
2 5 9 8 13 5 5 -3 13 3 19 13 7 14 6 19 -4 19 -7 0 -11 -7 -8 -14z"/>
<path d="M4982 2700 c0 -14 2 -19 5 -12 2 6 2 18 0 25 -3 6 -5 1 -5 -13z"/>
<path d="M6175 2714 c2 -4 -4 -14 -13 -23 -10 -9 -12 -12 -5 -8 6 5 16 6 22 3
10 -7 9 20 -2 29 -4 3 -5 2 -2 -1z"/>
<path d="M6110 2706 c0 -2 7 -7 16 -10 8 -3 12 -2 9 4 -6 10 -25 14 -25 6z"/>
<path d="M6274 2688 c-19 -23 -19 -23 2 -5 11 9 24 14 27 10 4 -3 7 -1 7 5 0
19 -15 14 -36 -10z"/>
<path d="M6536 2682 c-2 -4 -1 -14 4 -22 7 -11 9 -9 7 8 -1 24 -3 26 -11 14z"/>
<path d="M5001 2656 c-9 -10 -8 -15 3 -19 9 -4 18 -1 22 5 5 7 2 8 -6 3 -10
-6 -12 -4 -7 8 8 21 3 22 -12 3z"/>
<path d="M6270 2656 c0 -2 8 -10 18 -17 15 -13 16 -12 3 4 -13 16 -21 21 -21
13z"/>
<path d="M6314 2635 c0 -14 2 -22 5 -20 2 3 11 -1 20 -7 12 -10 12 -7 -2 8 -9
11 -14 23 -11 26 3 3 1 8 -3 11 -5 3 -9 -5 -9 -18z"/>
<path d="M6395 2651 c-3 -5 -2 -12 3 -15 5 -3 9 1 9 9 0 17 -3 19 -12 6z"/>
<path d="M5031 2630 c-13 -11 -19 -20 -13 -20 10 0 42 27 42 36 0 7 -4 5 -29
-16z"/>
<path d="M6456 2641 c-3 -5 2 -15 12 -22 15 -12 16 -12 5 2 -7 9 -10 19 -6 22
3 4 4 7 0 7 -3 0 -8 -4 -11 -9z"/>
<path d="M6256 2627 c3 -10 9 -15 12 -12 3 3 0 11 -7 18 -10 9 -11 8 -5 -6z"/>
<path d="M6596 2627 c3 -10 9 -15 12 -12 3 3 0 11 -7 18 -10 9 -11 8 -5 -6z"/>
<path d="M4933 2614 c0 -9 8 -9 29 -2 35 13 35 15 0 14 -16 -1 -29 -6 -29 -12z"/>
<path d="M6207 2619 c7 -7 15 -10 18 -7 3 3 -2 9 -12 12 -14 6 -15 5 -6 -5z"/>
<path d="M4914 2585 c0 -14 6 -27 13 -29 9 -4 9 3 1 25 -12 36 -16 37 -14 4z"/>
<path d="M4986 2596 c6 -15 4 -17 -6 -11 -9 6 -11 4 -5 -4 5 -9 10 -10 18 -2
8 8 7 14 -2 24 -10 10 -11 8 -5 -7z"/>
<path d="M6247 2582 c-10 -10 -14 -22 -10 -27 5 -4 1 -6 -7 -3 -11 4 -16 0
-16 -13 0 -12 4 -15 12 -9 6 6 15 6 19 2 5 -4 5 -2 2 5 -4 6 -1 14 5 16 10 4
9 6 -1 6 -11 1 -10 6 4 21 10 11 16 20 13 20 -3 0 -12 -8 -21 -18z"/>
<path d="M6302 2585 c15 -16 20 -17 30 -6 11 11 10 13 0 7 -7 -4 -21 -2 -30 5
-15 12 -15 11 0 -6z"/>
<path d="M6469 2583 c-13 -16 -12 -17 4 -4 9 7 17 15 17 17 0 8 -8 3 -21 -13z"/>
<path d="M6120 2580 c-8 -5 -10 -10 -5 -10 6 0 17 5 25 10 8 5 11 10 5 10 -5
0 -17 -5 -25 -10z"/>
<path d="M6273 2567 c0 -8 6 -14 14 -14 9 0 10 4 2 14 -6 7 -12 13 -14 13 -1
0 -2 -6 -2 -13z"/>
<path d="M6349 2563 c-13 -16 -12 -17 4 -4 9 7 17 15 17 17 0 8 -8 3 -21 -13z"/>
<path d="M2750 2565 c0 -7 30 -13 34 -7 3 4 -4 9 -15 9 -10 1 -19 0 -19 -2z"/>
<path d="M4956 2555 c-9 -26 -7 -32 5 -12 6 10 9 21 6 23 -2 3 -7 -2 -11 -11z"/>
<path d="M6148 2555 c6 -11 11 -24 12 -30 1 -5 4 -12 7 -15 4 -3 2 1 -2 9 -6
11 -4 13 11 7 16 -6 17 -5 4 6 -8 7 -20 20 -28 28 -11 13 -12 12 -4 -5z"/>
<path d="M1693 2531 c0 -11 5 -18 9 -15 4 3 5 11 1 19 -7 21 -12 19 -10 -4z"/>
<path d="M6630 2546 c0 -2 7 -7 16 -10 8 -3 12 -2 9 4 -6 10 -25 14 -25 6z"/>
<path d="M1830 2526 c0 -2 7 -7 16 -10 8 -3 12 -2 9 4 -6 10 -25 14 -25 6z"/>
<path d="M2775 2520 c3 -5 8 -10 11 -10 2 0 4 5 4 10 0 6 -5 10 -11 10 -5 0
-7 -4 -4 -10z"/>
<path d="M4907 2515 c3 -8 9 -12 14 -9 12 7 11 11 -5 17 -10 4 -13 1 -9 -8z"/>
<path d="M6277 2508 c19 -21 31 -25 14 -5 -6 8 -9 16 -6 19 3 2 -2 5 -10 5
-13 0 -13 -3 2 -19z"/>
<path d="M6310 2515 c5 -7 6 -16 2 -21 -4 -5 -3 -6 2 -2 5 4 16 2 25 -4 12
-10 12 -7 -2 8 -9 11 -15 23 -12 26 3 2 -2 5 -10 5 -10 0 -12 -4 -5 -12z"/>
<path d="M6061 2493 c-5 -10 -13 -16 -18 -13 -4 3 -9 -6 -10 -20 -2 -24 -2
-24 5 -2 4 13 11 23 15 22 4 0 15 6 23 15 9 8 11 15 5 15 -5 0 -14 -8 -20 -17z"/>
<path d="M6130 2506 c0 -2 7 -7 16 -10 8 -3 12 -2 9 4 -6 10 -25 14 -25 6z"/>
<path d="M6187 2491 c-3 -13 0 -18 7 -15 7 3 13 11 13 19 0 22 -14 18 -20 -4z"/>
<path d="M6656 2502 c-3 -5 1 -9 9 -9 8 0 12 4 9 9 -3 4 -7 8 -9 8 -2 0 -6 -4
-9 -8z"/>
<path d="M5877 2474 c-10 -13 -14 -24 -10 -24 9 0 36 40 31 45 -2 2 -11 -8
-21 -21z"/>
<path d="M5915 2490 c-3 -5 -1 -10 4 -10 6 0 11 5 11 10 0 6 -2 10 -4 10 -3 0
-8 -4 -11 -10z"/>
<path d="M6095 2491 c-3 -5 0 -13 6 -17 8 -5 9 -3 4 6 -6 9 -1 10 16 5 19 -5
21 -4 9 4 -19 13 -27 14 -35 2z"/>
<path d="M1610 2479 c0 -5 5 -7 10 -4 6 3 10 8 10 11 0 2 -4 4 -10 4 -5 0 -10
-5 -10 -11z"/>
<path d="M2936 2478 c3 -5 10 -6 15 -3 13 9 11 12 -6 12 -8 0 -12 -4 -9 -9z"/>
<path d="M4910 2480 c0 -5 5 -10 10 -10 6 0 10 5 10 10 0 6 -4 10 -10 10 -5 0
-10 -4 -10 -10z"/>
<path d="M6615 2481 c-3 -5 -2 -12 3 -15 5 -3 9 1 9 9 0 17 -3 19 -12 6z"/>
<path d="M2734 2460 c0 -13 4 -16 10 -10 7 7 7 13 0 20 -6 6 -10 3 -10 -10z"/>
<path d="M5995 2470 c-3 -5 -1 -10 4 -10 6 0 11 5 11 10 0 6 -2 10 -4 10 -3 0
-8 -4 -11 -10z"/>
<path d="M6296 2467 c3 -10 9 -15 12 -12 3 3 0 11 -7 18 -10 9 -11 8 -5 -6z"/>
<path d="M3014 2456 c1 -8 5 -18 8 -22 4 -3 5 1 4 10 -1 8 -5 18 -8 22 -4 3
-5 -1 -4 -10z"/>
<path d="M4845 2459 c-3 -4 2 -6 10 -5 21 3 28 13 10 13 -9 0 -18 -4 -20 -8z"/>
<path d="M6070 2460 c0 -5 5 -10 10 -10 6 0 10 5 10 10 0 6 -4 10 -10 10 -5 0
-10 -4 -10 -10z"/>
<path d="M6198 2458 c-9 -5 -6 -7 9 -5 12 2 25 6 28 8 8 9 -23 6 -37 -3z"/>
<path d="M6357 2448 c19 -21 31 -25 14 -5 -6 8 -9 16 -6 19 3 2 -2 5 -10 5
-13 0 -13 -3 2 -19z"/>
<path d="M6467 2459 c7 -7 15 -10 18 -7 3 3 -2 9 -12 12 -14 6 -15 5 -6 -5z"/>
<path d="M5820 2451 c0 -6 4 -13 10 -16 6 -3 7 1 4 9 -7 18 -14 21 -14 7z"/>
<path d="M6269 2443 c-13 -16 -12 -17 4 -4 16 13 21 21 13 21 -2 0 -10 -8 -17
-17z"/>
<path d="M1476 2435 c-9 -26 -7 -32 5 -12 6 10 9 21 6 23 -2 3 -7 -2 -11 -11z"/>
<path d="M1575 2440 c3 -5 8 -10 11 -10 2 0 4 5 4 10 0 6 -5 10 -11 10 -5 0
-7 -4 -4 -10z"/>
<path d="M5015 2440 c-3 -5 -1 -10 4 -10 6 0 11 5 11 10 0 6 -2 10 -4 10 -3 0
-8 -4 -11 -10z"/>
<path d="M5750 2446 c0 -3 9 -10 20 -16 11 -6 20 -8 20 -6 0 3 -9 10 -20 16
-11 6 -20 8 -20 6z"/>
<path d="M5899 2436 c17 -20 23 -76 8 -73 -22 4 -15 -42 9 -58 21 -13 23 -13
18 0 -4 8 -11 15 -18 15 -6 0 -12 9 -13 20 -1 11 4 19 10 17 7 -1 11 8 10 21
-2 13 1 21 7 17 5 -3 14 3 19 14 8 14 7 22 -4 31 -9 7 -18 10 -22 6 -3 -3 -2
-6 3 -6 5 0 10 -10 11 -22 2 -22 1 -22 -13 -4 -8 11 -14 23 -14 28 0 4 -5 8
-11 8 -8 0 -8 -4 0 -14z"/>
<path d="M5977 2443 c-2 -5 -3 -17 -3 -28 1 -15 7 -19 25 -17 14 2 21 0 17 -6
-4 -6 -2 -13 3 -16 5 -4 8 2 7 11 -2 11 -12 18 -25 17 -22 -1 -26 24 -6 38 6
5 6 8 -2 8 -6 0 -14 -3 -16 -7z"/>
<path d="M6059 2435 c17 -33 31 -51 31 -40 0 6 -10 21 -21 35 -13 17 -17 18
-10 5z"/>
<path d="M6162 2438 c-7 -7 -12 -16 -12 -22 0 -5 3 -6 7 -3 3 4 11 2 18 -3 8
-7 12 -5 12 5 0 8 -5 11 -10 8 -6 -4 -8 0 -4 10 8 20 5 21 -11 5z"/>
<path d="M6574 2442 c4 -3 14 -7 22 -8 9 -1 13 0 10 4 -4 3 -14 7 -22 8 -9 1
-13 0 -10 -4z"/>
<path d="M2756 2427 c3 -10 9 -15 12 -12 3 3 0 11 -7 18 -10 9 -11 8 -5 -6z"/>
<path d="M2791 2427 c-8 -10 -7 -14 2 -14 8 0 14 6 14 14 0 7 -1 13 -2 13 -2
0 -8 -6 -14 -13z"/>
<path d="M2873 2425 c0 -8 4 -12 9 -9 5 3 6 10 3 15 -9 13 -12 11 -12 -6z"/>
<path d="M2949 2423 c-13 -16 -12 -17 4 -4 9 7 17 15 17 17 0 8 -8 3 -21 -13z"/>
<path d="M4848 2432 c-17 -7 -17 -8 0 -18 15 -10 18 -8 18 7 0 11 0 19 -1 18
0 0 -8 -4 -17 -7z"/>
<path d="M5102 2420 c0 -14 2 -19 5 -12 2 6 2 18 0 25 -3 6 -5 1 -5 -13z"/>
<path d="M5133 2420 c1 -14 6 -23 11 -22 5 2 13 -2 18 -10 8 -11 9 -11 6 0 -2
8 -8 13 -13 12 -6 -1 -13 9 -17 22 -7 22 -7 22 -5 -2z"/>
<path d="M5186 2424 c-11 -8 -16 -14 -10 -14 13 0 39 18 34 24 -3 2 -14 -2
-24 -10z"/>
<path d="M5703 2420 c-1 -11 2 -22 8 -25 5 -4 6 2 2 11 -5 13 -3 15 8 9 12 -8
12 -6 0 8 -17 21 -16 21 -18 -3z"/>
<path d="M5736 2426 c3 -9 13 -16 22 -16 8 0 13 1 11 3 -2 1 -12 9 -22 16 -15
12 -17 12 -11 -3z"/>
<path d="M5850 2430 c0 -6 7 -13 15 -16 8 -4 12 -10 9 -15 -3 -5 3 -6 12 -2
11 4 13 8 6 11 -7 2 -10 8 -7 13 4 5 -2 6 -11 2 -12 -4 -15 -3 -10 5 4 7 2 12
-3 12 -6 0 -11 -5 -11 -10z"/>
<path d="M6110 2430 c-8 -5 -10 -10 -5 -10 6 0 17 5 25 10 8 5 11 10 5 10 -5
0 -17 -5 -25 -10z"/>
<path d="M6233 2425 c0 -8 4 -12 9 -9 5 3 6 10 3 15 -9 13 -12 11 -12 -6z"/>
<path d="M6284 2418 c-12 -14 -13 -18 -3 -10 9 6 18 10 21 7 2 -3 5 2 5 10 0
19 0 19 -23 -7z"/>
<path d="M6430 2436 c0 -2 8 -10 18 -17 15 -13 16 -12 3 4 -13 16 -21 21 -21
13z"/>
<path d="M1726 2418 c3 -5 10 -6 15 -3 13 9 11 12 -6 12 -8 0 -12 -4 -9 -9z"/>
<path d="M1776 2418 c3 -5 10 -6 15 -3 13 9 11 12 -6 12 -8 0 -12 -4 -9 -9z"/>
<path d="M2840 2420 c-9 -6 -10 -10 -3 -10 6 0 15 5 18 10 8 12 4 12 -15 0z"/>
<path d="M4916 2419 c4 -8 30 -6 38 2 3 3 -5 5 -19 5 -13 0 -22 -3 -19 -7z"/>
<path d="M4970 2426 c0 -2 7 -7 16 -10 8 -3 12 -2 9 4 -6 10 -25 14 -25 6z"/>
<path d="M5828 2402 c29 -26 44 -51 24 -38 -4 2 -14 1 -22 -5 -11 -6 -12 -9
-2 -9 8 0 10 -5 6 -12 -4 -7 3 -3 16 9 21 20 22 22 6 44 -9 13 -16 19 -16 14
0 -6 -5 -2 -11 8 -5 9 -15 17 -21 17 -7 0 3 -13 20 -28z"/>
<path d="M6010 2425 c0 -7 30 -13 34 -7 3 4 -4 9 -15 9 -10 1 -19 0 -19 -2z"/>
<path d="M6211 2414 c0 -11 3 -14 6 -6 3 7 2 16 -1 19 -3 4 -6 -2 -5 -13z"/>
<path d="M1433 2405 c0 -8 4 -12 9 -9 5 3 6 10 3 15 -9 13 -12 11 -12 -6z"/>
<path d="M5035 2409 c-4 -6 -5 -12 -2 -15 2 -3 7 2 10 11 7 17 1 20 -8 4z"/>
<path d="M2880 2400 c-9 -6 -10 -10 -3 -10 6 0 15 5 18 10 8 12 4 12 -15 0z"/>
<path d="M4826 2400 c5 -8 9 -18 9 -22 0 -3 3 -9 7 -13 3 -4 5 0 4 9 -1 9 -8
22 -16 29 -10 10 -11 9 -4 -3z"/>
<path d="M4975 2401 c6 -11 4 -13 -8 -8 -23 9 -21 0 2 -13 15 -7 19 -7 17 5
-1 8 -6 18 -11 22 -4 5 -5 2 0 -6z"/>
<path d="M5060 2406 c0 -2 7 -6 15 -10 8 -3 15 -1 15 4 0 6 -7 10 -15 10 -8 0
-15 -2 -15 -4z"/>
<path d="M5780 2400 c0 -5 7 -7 15 -4 8 4 15 8 15 10 0 2 -7 4 -15 4 -8 0 -15
-4 -15 -10z"/>
<path d="M6054 2402 c3 -5 1 -12 -5 -14 -7 -2 -10 -9 -8 -16 3 -8 9 -5 16 7 9
15 10 22 1 27 -6 4 -8 3 -4 -4z"/>
<path d="M6123 2395 c-3 -9 -3 -18 -1 -21 3 -3 8 4 11 16 6 23 -1 27 -10 5z"/>
<path d="M6241 2396 c-7 -8 -22 -13 -33 -11 -11 3 -18 2 -14 -2 3 -3 0 -13 -6
-22 -9 -11 -6 -10 9 2 16 14 22 15 26 5 4 -11 6 -11 6 0 1 8 6 10 14 6 6 -4 9
-4 5 1 -4 4 -3 14 3 22 6 7 9 13 6 13 -2 0 -10 -6 -16 -14z"/>
<path d="M1615 2389 c-4 -6 -5 -12 -2 -15 2 -3 7 2 10 11 7 17 1 20 -8 4z"/>
<path d="M1735 2389 c-4 -6 -5 -12 -2 -15 2 -3 7 2 10 11 7 17 1 20 -8 4z"/>
<path d="M1774 2380 c0 -13 4 -16 10 -10 7 7 7 13 0 20 -6 6 -10 3 -10 -10z"/>
<path d="M5186 2385 c-3 -8 -1 -15 4 -15 6 0 10 7 10 15 0 8 -2 15 -4 15 -2 0
-6 -7 -10 -15z"/>
<path d="M5255 2385 c4 -16 0 -21 -16 -22 -18 -2 -19 0 -7 15 12 15 11 16 -4
3 -21 -16 -14 -32 12 -28 28 4 33 13 20 34 -10 17 -11 17 -5 -2z"/>
<path d="M5370 2389 c0 -5 5 -7 10 -4 6 3 10 8 10 11 0 2 -4 4 -10 4 -5 0 -10
-5 -10 -11z"/>
<path d="M5387 2377 c-10 -10 -17 -20 -15 -22 6 -6 40 24 37 32 -2 5 -12 0
-22 -10z"/>
<path d="M5579 2392 c11 -8 9 -11 -8 -17 -11 -3 -21 -11 -21 -17 0 -7 5 -6 14
1 8 7 28 14 45 16 28 4 30 3 18 -16 -10 -17 -9 -23 10 -38 12 -10 19 -21 16
-25 -4 -3 -1 -6 5 -6 19 0 14 16 -10 33 -19 12 -21 18 -12 34 7 10 20 16 30
15 11 -2 15 0 11 5 -5 4 -23 9 -40 9 -18 1 -41 5 -52 9 -15 5 -16 4 -6 -3z"/>
<path d="M5733 2375 c0 -13 3 -22 8 -20 9 6 8 45 -2 45 -4 0 -6 -11 -6 -25z"/>
<path d="M5761 2389 c0 -9 6 -22 14 -29 10 -9 15 -9 15 -1 0 6 -4 11 -9 11 -5
0 -12 8 -14 18 -4 14 -5 14 -6 1z"/>
<path d="M4705 2379 c-3 -4 2 -6 10 -5 21 3 28 13 10 13 -9 0 -18 -4 -20 -8z"/>
<path d="M4880 2386 c0 -2 8 -10 18 -17 15 -13 16 -12 3 4 -13 16 -21 21 -21
13z"/>
<path d="M5004 2379 c-3 -6 -1 -16 5 -22 9 -9 10 -7 5 7 -6 15 -4 17 6 11 9
-5 11 -4 6 3 -9 15 -13 15 -22 1z"/>
<path d="M5055 2380 c3 -5 8 -10 11 -10 2 0 4 5 4 10 0 6 -5 10 -11 10 -5 0
-7 -4 -4 -10z"/>
<path d="M5115 2380 c3 -5 8 -10 11 -10 2 0 4 5 4 10 0 6 -5 10 -11 10 -5 0
-7 -4 -4 -10z"/>
<path d="M5801 2373 c0 -11 3 -13 6 -5 2 6 10 9 15 6 7 -4 8 -2 4 4 -11 18
-26 14 -25 -5z"/>
<path d="M5950 2375 c0 -8 2 -15 4 -15 2 0 6 7 10 15 3 8 1 15 -4 15 -6 0 -10
-7 -10 -15z"/>
<path d="M6101 2374 c0 -11 3 -14 6 -6 3 7 2 16 -1 19 -3 4 -6 -2 -5 -13z"/>
<path d="M6314 2378 c-4 -7 -4 -10 1 -6 4 4 15 2 24 -5 14 -11 14 -10 2 6 -16
20 -18 21 -27 5z"/>
<path d="M1669 2363 c-13 -16 -12 -17 4 -4 9 7 17 15 17 17 0 8 -8 3 -21 -13z"/>
<path d="M2799 2378 c-6 -23 -7 -48 -1 -48 4 0 8 11 8 25 0 21 -4 33 -7 23z"/>
<path d="M5136 2363 c-6 -14 -5 -15 5 -6 7 7 10 15 7 18 -3 3 -9 -2 -12 -12z"/>
<path d="M2826 2362 c-2 -4 4 -8 14 -8 10 0 16 4 14 8 -3 4 -9 8 -14 8 -5 0
-11 -4 -14 -8z"/>
<path d="M3114 2362 c4 -3 14 -7 22 -8 9 -1 13 0 10 4 -4 3 -14 7 -22 8 -9 1
-13 0 -10 -4z"/>
<path d="M4860 2366 c0 -2 8 -10 18 -17 15 -13 16 -12 3 4 -13 16 -21 21 -21
13z"/>
<path d="M5036 2353 c-6 -14 -5 -15 5 -6 7 7 10 15 7 18 -3 3 -9 -2 -12 -12z"/>
<path d="M5086 2345 c-9 -14 -13 -25 -8 -25 5 0 14 11 20 25 6 14 10 25 8 25
-2 0 -11 -11 -20 -25z"/>
<path d="M5157 2355 c-4 -8 -3 -16 1 -19 4 -3 9 4 9 15 2 23 -3 25 -10 4z"/>
<path d="M5276 2353 c-6 -14 -5 -15 5 -6 7 7 10 15 7 18 -3 3 -9 -2 -12 -12z"/>
<path d="M5445 2360 c-3 -5 -1 -10 4 -10 6 0 11 5 11 10 0 6 -2 10 -4 10 -3 0
-8 -4 -11 -10z"/>
<path d="M5685 2360 c-3 -5 -1 -10 4 -10 6 0 11 5 11 10 0 6 -2 10 -4 10 -3 0
-8 -4 -11 -10z"/>
<path d="M5990 2360 c0 -5 5 -10 10 -10 6 0 10 5 10 10 0 6 -4 10 -10 10 -5 0
-10 -4 -10 -10z"/>
<path d="M6556 2355 c-9 -26 -7 -32 5 -12 6 10 9 21 6 23 -2 3 -7 -2 -11 -11z"/>
<path d="M1686 2345 c-11 -8 -15 -15 -9 -15 6 0 16 7 23 15 16 19 11 19 -14 0z"/>
<path d="M3029 2343 c-13 -16 -12 -17 4 -4 16 13 21 21 13 21 -2 0 -10 -8 -17
-17z"/>
<path d="M4713 2347 c0 -8 6 -14 14 -14 9 0 10 4 2 14 -6 7 -12 13 -14 13 -1
0 -2 -6 -2 -13z"/>
<path d="M4931 2346 c-9 -10 -8 -15 2 -19 8 -3 13 3 13 14 0 23 0 23 -15 5z"/>
<path d="M5410 2345 c0 -8 2 -15 4 -15 2 0 6 7 10 15 3 8 1 15 -4 15 -6 0 -10
-7 -10 -15z"/>
<path d="M5582 2351 c-11 -7 -10 -9 3 -15 9 -3 14 -10 10 -16 -7 -11 15 -50
29 -50 4 0 2 8 -5 17 -12 15 -12 16 4 10 11 -4 16 -3 12 4 -4 6 -14 8 -22 5
-11 -4 -13 -1 -8 14 4 13 2 20 -7 20 -10 0 -9 3 2 10 8 5 11 10 5 10 -5 0 -16
-4 -23 -9z"/>
<path d="M5650 2345 c0 -8 2 -15 4 -15 2 0 6 7 10 15 3 8 1 15 -4 15 -6 0 -10
-7 -10 -15z"/>
<path d="M1749 2337 c6 -8 7 -18 3 -22 -4 -5 -1 -5 6 -1 10 6 10 11 1 22 -6 8
-14 14 -16 14 -3 0 0 -6 6 -13z"/>
<path d="M2940 2346 c0 -2 8 -10 18 -17 15 -13 16 -12 3 4 -13 16 -21 21 -21
13z"/>
<path d="M4834 2335 c3 -23 12 -26 13 -5 1 11 -2 20 -7 20 -4 0 -7 -7 -6 -15z"/>
<path d="M5120 2332 c9 -19 30 -23 30 -5 0 4 -3 3 -7 0 -3 -4 -12 1 -20 11
-13 15 -13 15 -3 -6z"/>
<path d="M5188 2343 c7 -3 16 -2 19 1 4 3 -2 6 -13 5 -11 0 -14 -3 -6 -6z"/>
<path d="M5340 2339 c-13 -9 -12 -10 2 -5 10 3 20 1 23 -5 7 -11 72 -39 89
-38 6 0 -8 8 -32 17 -35 15 -40 20 -30 32 11 12 10 12 -3 2 -9 -7 -19 -8 -25
-2 -6 6 -15 5 -24 -1z"/>
<path d="M5470 2340 c0 -5 7 -7 15 -4 11 5 14 2 9 -12 -6 -15 -4 -16 6 -7 7 6
9 16 6 22 -9 14 -36 15 -36 1z"/>
<path d="M5701 2341 c-10 -6 -9 -10 6 -16 10 -5 21 -7 26 -7 4 1 7 -6 7 -16 0
-10 -8 -18 -19 -19 -14 -1 -18 3 -14 15 4 14 3 14 -5 2 -14 -19 -6 -30 21 -26
13 1 23 11 25 22 4 25 -29 56 -47 45z"/>
<path d="M5750 2345 c0 -12 33 -55 42 -55 5 0 0 10 -11 22 -11 11 -18 25 -15
30 3 4 0 8 -5 8 -6 0 -11 -2 -11 -5z"/>
<path d="M5790 2340 c-11 -7 -11 -10 -2 -10 7 0 10 -4 7 -10 -4 -6 1 -7 11 -3
13 5 15 3 9 -7 -6 -9 -4 -11 5 -5 10 6 10 11 -3 20 -9 7 -14 15 -10 18 9 10 0
8 -17 -3z"/>
<path d="M5871 2334 c0 -11 3 -14 6 -6 3 7 2 16 -1 19 -3 4 -6 -2 -5 -13z"/>
<path d="M5930 2340 c0 -5 5 -10 10 -10 6 0 10 5 10 10 0 6 -4 10 -10 10 -5 0
-10 -4 -10 -10z"/>
<path d="M6020 2341 c0 -9 30 -24 36 -18 2 1 -6 8 -16 15 -11 7 -20 8 -20 3z"/>
<path d="M6148 2336 c4 -6 7 -14 7 -18 0 -19 11 -14 11 6 0 12 -6 23 -13 23
-6 0 -9 -5 -5 -11z"/>
<path d="M6200 2345 c0 -2 6 -8 13 -14 10 -8 14 -7 14 2 0 8 -6 14 -14 14 -7
0 -13 -1 -13 -2z"/>
<path d="M6319 2333 c-12 -16 -12 -17 2 -6 9 7 20 9 24 5 5 -4 5 -1 1 6 -9 16
-11 15 -27 -5z"/>
<path d="M1712 2327 c-8 -10 -6 -13 11 -14 12 0 16 1 9 4 -6 3 -10 9 -6 14 8
14 -2 11 -14 -4z"/>
<path d="M2829 2323 c-13 -16 -12 -17 4 -4 16 13 21 21 13 21 -2 0 -10 -8 -17
-17z"/>
<path d="M5238 2333 c7 -3 16 -2 19 1 4 3 -2 6 -13 5 -11 0 -14 -3 -6 -6z"/>
<path d="M5430 2332 c0 -5 12 -14 26 -20 14 -7 23 -8 19 -2 -9 15 -45 32 -45
22z"/>
<path d="M5670 2335 c0 -5 5 -17 10 -25 5 -8 10 -10 10 -5 0 6 -5 17 -10 25
-5 8 -10 11 -10 5z"/>
<path d="M5994 2326 c1 -8 5 -18 8 -22 4 -3 5 1 4 10 -1 8 -5 18 -8 22 -4 3
-5 -1 -4 -10z"/>
<path d="M6115 2331 c-6 -11 13 -26 22 -17 4 3 1 6 -6 6 -7 0 -9 5 -6 10 3 6
4 10 1 10 -3 0 -7 -4 -11 -9z"/>
<path d="M1375 2319 c-3 -4 2 -6 10 -5 21 3 28 13 10 13 -9 0 -18 -4 -20 -8z"/>
<path d="M4900 2326 c0 -2 8 -10 18 -17 15 -13 16 -12 3 4 -13 16 -21 21 -21
13z"/>
<path d="M4998 2323 c7 -3 16 -2 19 1 4 3 -2 6 -13 5 -11 0 -14 -3 -6 -6z"/>
<path d="M5164 2314 c-18 -14 -18 -15 4 -4 12 6 22 13 22 15 0 8 -5 6 -26 -11z"/>
<path d="M5207 2324 c7 -3 9 -13 6 -22 -4 -14 -3 -14 5 -2 12 16 7 30 -11 29
-9 0 -9 -2 0 -5z"/>
<path d="M5273 2312 c0 -11 5 -18 9 -16 4 3 8 0 8 -7 0 -7 3 -10 6 -6 3 3 -1
16 -9 28 -16 22 -16 22 -14 1z"/>
<path d="M6188 2319 c6 -9 8 -20 4 -25 -4 -5 -3 -6 2 -2 5 4 14 3 21 -2 8 -7
12 -5 12 5 0 8 -3 13 -5 10 -3 -3 -15 3 -26 12 -15 14 -18 14 -8 2z"/>
<path d="M6496 2318 c3 -4 11 -5 19 -1 21 7 19 12 -4 10 -11 0 -18 -5 -15 -9z"/>
<path d="M1575 2309 c-4 -6 -5 -12 -2 -15 2 -3 7 2 10 11 7 17 1 20 -8 4z"/>
<path d="M2849 2303 c-13 -16 -12 -17 4 -4 9 7 17 15 17 17 0 8 -8 3 -21 -13z"/>
<path d="M5350 2311 c0 -5 5 -13 10 -16 6 -3 10 -2 10 4 0 5 -4 13 -10 16 -5
3 -10 2 -10 -4z"/>
<path d="M5961 2303 c7 -10 15 -20 16 -22 2 -2 3 3 3 11 0 9 -7 19 -16 22 -15
6 -15 4 -3 -11z"/>
<path d="M2884 2302 c4 -3 14 -7 22 -8 9 -1 13 0 10 4 -4 3 -14 7 -22 8 -9 1
-13 0 -10 -4z"/>
<path d="M4947 2299 c7 -7 15 -10 18 -7 3 3 -2 9 -12 12 -14 6 -15 5 -6 -5z"/>
<path d="M5046 2301 c8 -9 43 -11 48 -3 2 4 -9 7 -25 7 -15 1 -26 -1 -23 -4z"/>
<path d="M5180 2300 c-9 -6 -10 -10 -3 -10 6 0 15 5 18 10 8 12 4 12 -15 0z"/>
<path d="M5235 2300 c-3 -6 1 -7 9 -4 18 7 21 14 7 14 -6 0 -13 -4 -16 -10z"/>
<path d="M5560 2295 c-7 -9 -11 -17 -9 -20 3 -2 10 5 17 15 14 24 10 26 -8 5z"/>
<path d="M6035 2300 c-3 -5 -1 -10 4 -10 6 0 11 5 11 10 0 6 -2 10 -4 10 -3 0
-8 -4 -11 -10z"/>
<path d="M6310 2306 c0 -2 7 -7 16 -10 8 -3 12 -2 9 4 -6 10 -25 14 -25 6z"/>
<path d="M6353 2295 c0 -8 4 -12 9 -9 5 3 6 10 3 15 -9 13 -12 11 -12 -6z"/>
<path d="M5490 2291 c0 -5 5 -13 10 -16 6 -3 10 -2 10 4 0 5 -4 13 -10 16 -5
3 -10 2 -10 -4z"/>
<path d="M5830 2290 c0 -6 7 -10 15 -10 8 0 15 2 15 4 0 2 -7 6 -15 10 -8 3
-15 1 -15 -4z"/>
<path d="M1336 2278 c3 -5 10 -6 15 -3 13 9 11 12 -6 12 -8 0 -12 -4 -9 -9z"/>
<path d="M1708 2283 c6 -2 9 -10 6 -15 -4 -7 -2 -8 5 -4 13 9 5 26 -12 25 -9
0 -8 -2 1 -6z"/>
<path d="M2953 2283 c4 -3 -1 -16 -10 -27 -18 -21 -18 -21 4 -2 20 16 23 36 6
36 -4 0 -3 -3 0 -7z"/>
<path d="M2986 2282 c-3 -5 1 -9 9 -9 8 0 15 4 15 9 0 4 -4 8 -9 8 -6 0 -12
-4 -15 -8z"/>
<path d="M4775 2279 c-3 -4 2 -6 10 -5 21 3 28 13 10 13 -9 0 -18 -4 -20 -8z"/>
<path d="M4867 2279 c7 -7 15 -10 18 -7 3 3 -2 9 -12 12 -14 6 -15 5 -6 -5z"/>
<path d="M5106 2276 c5 -12 4 -17 -3 -13 -5 3 -10 -1 -10 -9 0 -13 2 -13 16 0
12 13 13 18 2 28 -10 11 -11 9 -5 -6z"/>
<path d="M5235 2279 c-19 -9 -19 -9 2 -5 13 2 24 -2 27 -11 3 -8 10 -12 15 -9
5 4 12 1 14 -4 4 -7 5 -6 4 1 -2 6 -6 9 -9 7 -4 -2 -13 4 -20 13 -10 13 -18
15 -33 8z"/>
<path d="M5379 2283 c-1 -4 -1 -12 0 -17 1 -5 -5 -6 -14 -2 -9 3 -14 2 -10 -3
3 -5 -1 -12 -7 -15 -7 -3 -2 -3 11 0 17 5 21 3 16 -6 -5 -8 -4 -11 3 -6 6 3 9
15 7 26 -3 15 2 20 16 20 11 0 18 -4 14 -9 -9 -15 13 -23 32 -11 16 9 15 10
-5 5 -16 -5 -22 -3 -20 7 2 7 -7 14 -19 16 -13 2 -24 0 -24 -5z"/>
<path d="M5473 2264 c0 -17 2 -22 7 -13 5 6 6 18 3 26 -8 19 -10 16 -10 -13z"/>
<path d="M5576 2282 c-9 -15 0 -46 15 -50 8 -2 10 0 4 5 -15 12 -19 47 -4 37
8 -4 10 -3 5 4 -8 14 -13 15 -20 4z"/>
<path d="M5756 2273 c-6 -14 -5 -15 5 -6 7 7 10 15 7 18 -3 3 -9 -2 -12 -12z"/>
<path d="M6100 2284 c0 -1 8 -8 17 -15 9 -8 14 -9 10 -2 -4 6 -1 13 5 16 7 3
3 4 -9 4 -13 -1 -23 -2 -23 -3z"/>
<path d="M6150 2286 c0 -2 7 -7 16 -10 8 -3 12 -2 9 4 -6 10 -25 14 -25 6z"/>
<path d="M1571 2267 c-8 -10 -7 -14 2 -14 8 0 14 6 14 14 0 7 -1 13 -2 13 -2
0 -8 -6 -14 -13z"/>
<path d="M2862 2264 c10 -10 20 -16 22 -13 3 3 -5 11 -17 18 -21 13 -21 12 -5
-5z"/>
<path d="M2896 2267 c3 -10 9 -15 12 -12 3 3 0 11 -7 18 -10 9 -11 8 -5 -6z"/>
<path d="M5192 2275 c4 -4 0 -14 -10 -21 -15 -12 -15 -12 6 -7 24 6 29 18 10
29 -7 4 -10 4 -6 -1z"/>
<path d="M5641 2264 c0 -11 3 -14 6 -6 3 7 2 16 -1 19 -3 4 -6 -2 -5 -13z"/>
<path d="M5670 2271 c0 -5 5 -13 10 -16 6 -3 10 -2 10 4 0 5 -4 13 -10 16 -5
3 -10 2 -10 -4z"/>
<path d="M6430 2276 c0 -2 8 -10 18 -17 15 -13 16 -12 3 4 -13 16 -21 21 -21
13z"/>
<path d="M3150 2260 c0 -5 5 -10 11 -10 5 0 7 5 4 10 -3 6 -8 10 -11 10 -2 0
-4 -4 -4 -10z"/>
<path d="M3213 2251 c0 -11 5 -18 9 -15 4 3 5 11 1 19 -7 21 -12 19 -10 -4z"/>
<path d="M4820 2266 c0 -2 8 -10 18 -17 15 -13 16 -12 3 4 -13 16 -21 21 -21
13z"/>
<path d="M5514 2255 c-4 -8 -11 -12 -17 -8 -6 3 -7 1 -3 -5 9 -15 9 -15 29 8
9 11 12 20 7 20 -6 0 -13 -7 -16 -15z"/>
<path d="M5795 2260 c26 -11 35 -12 35 -2 0 4 -12 8 -27 9 -24 1 -25 1 -8 -7z"/>
<path d="M5855 2260 c3 -5 8 -10 11 -10 2 0 4 5 4 10 0 6 -5 10 -11 10 -5 0
-7 -4 -4 -10z"/>
<path d="M5885 2260 c-3 -6 1 -7 9 -4 18 7 21 14 7 14 -6 0 -13 -4 -16 -10z"/>
<path d="M6139 2253 c-13 -16 -12 -17 4 -4 16 13 21 21 13 21 -2 0 -10 -8 -17
-17z"/>
<path d="M6206 2262 c-3 -5 1 -9 9 -9 8 0 12 4 9 9 -3 4 -7 8 -9 8 -2 0 -6 -4
-9 -8z"/>
<path d="M5315 2249 c-4 -6 -5 -12 -2 -15 2 -3 7 2 10 11 7 17 1 20 -8 4z"/>
<path d="M5550 2251 c0 -7 -5 -9 -12 -5 -7 5 -8 3 -3 -5 5 -9 10 -10 18 -2 6
6 8 14 4 18 -4 3 -7 1 -7 -6z"/>
<path d="M5616 2243 c-6 -14 -5 -15 5 -6 7 7 10 15 7 18 -3 3 -9 -2 -12 -12z"/>
<path d="M5704 2244 c-18 -14 -18 -14 6 -3 31 14 36 19 24 19 -6 0 -19 -7 -30
-16z"/>
<path d="M6033 2247 c0 -8 6 -14 14 -14 9 0 10 4 2 14 -6 7 -12 13 -14 13 -1
0 -2 -6 -2 -13z"/>
<path d="M1519 2233 c-13 -16 -12 -17 4 -4 9 7 17 15 17 17 0 8 -8 3 -21 -13z"/>
<path d="M1638 2243 c7 -3 16 -2 19 1 4 3 -2 6 -13 5 -11 0 -14 -3 -6 -6z"/>
<path d="M2959 2233 c-13 -16 -12 -17 4 -4 16 13 21 21 13 21 -2 0 -10 -8 -17
-17z"/>
<path d="M5396 2233 c-6 -14 -5 -15 5 -6 7 7 10 15 7 18 -3 3 -9 -2 -12 -12z"/>
<path d="M5655 2241 c-3 -6 5 -15 17 -21 21 -10 21 -10 6 3 -10 8 -15 17 -11
20 3 4 4 7 0 7 -3 0 -8 -4 -12 -9z"/>
<path d="M5755 2215 c3 -49 11 -53 11 -5 0 22 -3 40 -7 40 -4 0 -6 -16 -4 -35z"/>
<path d="M5899 2248 c0 -2 -2 -13 -3 -26 -3 -21 -2 -21 18 -5 12 10 23 20 26
22 3 2 -6 0 -19 -4 -16 -5 -21 -4 -17 4 4 6 5 11 2 11 -3 0 -6 -1 -7 -2z"/>
<path d="M6080 2240 c-9 -6 -10 -10 -3 -10 6 0 15 5 18 10 8 12 4 12 -15 0z"/>
<path d="M1722 2224 c-7 -8 -8 -14 -3 -14 10 0 25 19 20 25 -2 1 -10 -3 -17
-11z"/>
<path d="M2890 2225 c-10 -13 -11 -18 -1 -28 10 -9 11 -8 5 7 -5 12 -4 17 3
13 5 -3 10 0 10 8 0 19 -2 19 -17 0z"/>
<path d="M5059 2238 c-5 -18 -6 -38 -1 -34 7 8 12 36 6 36 -2 0 -4 -1 -5 -2z"/>
<path d="M5156 2227 c3 -10 9 -15 12 -12 3 3 0 11 -7 18 -10 9 -11 8 -5 -6z"/>
<path d="M5800 2229 c0 -5 -4 -7 -10 -4 -5 3 -10 1 -10 -4 0 -6 5 -11 11 -11
5 0 8 -4 5 -8 -3 -5 2 -9 10 -9 9 0 11 4 5 10 -5 5 -7 16 -4 23 3 8 2 14 -1
14 -3 0 -6 -5 -6 -11z"/>
<path d="M5860 2231 c0 -6 4 -13 10 -16 6 -3 7 1 4 9 -7 18 -14 21 -14 7z"/>
<path d="M1276 2213 c-6 -14 -5 -15 5 -6 7 7 10 15 7 18 -3 3 -9 -2 -12 -12z"/>
<path d="M2979 2213 c-12 -16 -12 -17 2 -6 9 7 20 9 24 5 5 -4 5 -1 1 6 -9 16
-11 15 -27 -5z"/>
<path d="M3155 2220 c3 -5 8 -10 11 -10 2 0 4 5 4 10 0 6 -5 10 -11 10 -5 0
-7 -4 -4 -10z"/>
<path d="M5436 2214 c-24 -24 -19 -30 7 -8 12 10 24 20 26 21 2 2 -1 3 -7 3
-6 0 -18 -7 -26 -16z"/>
<path d="M5487 2219 c7 -7 15 -10 18 -7 3 3 -2 9 -12 12 -14 6 -15 5 -6 -5z"/>
<path d="M5567 2219 c7 -7 15 -10 18 -7 3 3 -2 9 -12 12 -14 6 -15 5 -6 -5z"/>
<path d="M5625 2219 c-4 -6 -4 -13 -1 -16 3 -4 6 -1 6 6 0 7 5 9 12 5 7 -4 8
-3 4 4 -9 15 -13 15 -21 1z"/>
<path d="M5970 2222 c0 -4 10 -9 22 -9 18 -2 20 0 8 7 -18 12 -30 13 -30 2z"/>
<path d="M6114 2216 c1 -8 5 -18 8 -22 4 -3 5 1 4 10 -1 8 -5 18 -8 22 -4 3
-5 -1 -4 -10z"/>
<path d="M6370 2220 c0 -5 5 -10 11 -10 5 0 7 5 4 10 -3 6 -8 10 -11 10 -2 0
-4 -4 -4 -10z"/>
<path d="M1559 2193 c-13 -16 -12 -17 4 -4 9 7 17 15 17 17 0 8 -8 3 -21 -13z"/>
<path d="M1695 2200 c6 -10 4 -12 -7 -7 -16 6 -20 -17 -5 -28 4 -3 5 -2 2 2
-3 3 3 11 12 18 13 9 13 14 3 20 -9 6 -11 4 -5 -5z"/>
<path d="M2920 2200 c-9 -6 -10 -10 -3 -10 6 0 15 5 18 10 8 12 4 12 -15 0z"/>
<path d="M5454 2198 c-4 -6 -3 -8 4 -4 6 3 12 -2 14 -11 3 -16 4 -17 10 -1 8
19 -17 33 -28 16z"/>
<path d="M5534 2198 c-4 -6 -3 -8 4 -4 6 3 12 -2 14 -11 3 -16 4 -17 10 -1 8
19 -17 33 -28 16z"/>
<path d="M1454 2189 c-3 -6 -2 -15 3 -20 5 -5 9 -1 9 11 0 23 -2 24 -12 9z"/>
<path d="M1638 2193 c7 -3 16 -2 19 1 4 3 -2 6 -13 5 -11 0 -14 -3 -6 -6z"/>
<path d="M2995 2190 c-4 -6 -10 -8 -14 -6 -4 3 -8 -1 -8 -9 0 -13 4 -12 19 2
18 16 22 23 14 23 -3 0 -8 -5 -11 -10z"/>
<path d="M3150 2196 c0 -2 8 -10 18 -17 15 -13 16 -12 3 4 -13 16 -21 21 -21
13z"/>
<path d="M4953 2185 c0 -8 4 -12 9 -9 5 3 6 10 3 15 -9 13 -12 11 -12 -6z"/>
<path d="M5171 2187 c-8 -10 -7 -14 2 -14 8 0 14 6 14 14 0 7 -1 13 -2 13 -2
0 -8 -6 -14 -13z"/>
<path d="M5213 2187 c0 -7 9 -14 19 -14 10 -1 18 3 18 9 0 6 -3 8 -7 5 -3 -4
-11 -2 -18 3 -8 7 -12 6 -12 -3z"/>
<path d="M5374 2189 c1 -7 12 -13 24 -14 11 -1 19 2 16 7 -4 5 -12 7 -19 4 -8
-3 -16 -1 -19 5 -2 5 -3 4 -2 -2z"/>
<path d="M5635 2191 c-3 -5 -2 -12 3 -15 5 -3 9 1 9 9 0 17 -3 19 -12 6z"/>
<path d="M5670 2190 c-12 -8 -12 -10 -1 -10 11 0 11 -3 0 -17 -13 -16 -12 -17
3 -4 10 7 16 17 13 21 -3 5 1 11 7 13 7 3 9 6 3 6 -5 0 -17 -4 -25 -9z"/>
<path d="M5874 2191 c4 -6 3 -18 -3 -25 -8 -9 -7 -13 2 -13 16 0 20 34 5 43
-7 4 -8 2 -4 -5z"/>
<path d="M6014 2189 c-3 -6 -2 -15 3 -20 5 -5 9 -1 9 11 0 23 -2 24 -12 9z"/>
<path d="M1590 2180 c0 -5 5 -10 10 -10 6 0 10 5 10 10 0 6 -4 10 -10 10 -5 0
-10 -4 -10 -10z"/>
<path d="M3076 2178 c3 -5 10 -6 15 -3 13 9 11 12 -6 12 -8 0 -12 -4 -9 -9z"/>
<path d="M5060 2186 c0 -2 8 -10 18 -17 15 -13 16 -12 3 4 -13 16 -21 21 -21
13z"/>
<path d="M5724 2179 c-4 -7 -3 -9 4 -5 5 3 13 0 15 -6 4 -9 6 -10 6 -1 1 17
-16 25 -25 12z"/>
<path d="M5826 2182 c-3 -5 1 -9 9 -9 8 0 12 4 9 9 -3 4 -7 8 -9 8 -2 0 -6 -4
-9 -8z"/>
<path d="M6273 2175 c0 -8 4 -12 9 -9 5 3 6 10 3 15 -9 13 -12 11 -12 -6z"/>
<path d="M2874 2164 c3 -22 22 -38 31 -25 3 6 3 11 -2 10 -19 -3 -27 2 -15 10
11 7 11 9 -1 14 -9 3 -14 0 -13 -9z"/>
<path d="M5310 2176 c0 -2 8 -10 18 -17 15 -13 16 -12 3 4 -13 16 -21 21 -21
13z"/>
<path d="M5355 2160 c6 -30 16 -40 12 -12 -2 12 -6 24 -10 28 -3 4 -4 -4 -2
-16z"/>
<path d="M5789 2163 c-13 -16 -12 -17 4 -4 16 13 21 21 13 21 -2 0 -10 -8 -17
-17z"/>
<path d="M1523 2158 c-4 -7 -8 -20 -8 -29 0 -9 -7 -24 -15 -35 -14 -18 -14
-19 7 -1 11 10 20 26 18 35 -1 9 2 23 8 30 5 6 7 12 4 12 -3 0 -9 -6 -14 -12z"/>
<path d="M1638 2148 c2 -10 6 -18 7 -18 1 0 5 8 7 18 3 11 0 19 -7 19 -7 0
-10 -8 -7 -19z"/>
<path d="M3000 2155 c-7 -8 -16 -13 -20 -10 -5 3 -11 2 -14 -3 -10 -17 24 -8
41 10 9 10 14 18 11 18 -3 0 -11 -7 -18 -15z"/>
<path d="M3286 2162 c-3 -5 1 -9 9 -9 8 0 12 4 9 9 -3 4 -7 8 -9 8 -2 0 -6 -4
-9 -8z"/>
<path d="M5708 2159 c6 -9 8 -20 4 -25 -4 -5 -3 -6 2 -2 5 4 14 3 21 -2 8 -7
12 -5 12 5 0 8 -3 13 -5 10 -3 -3 -15 3 -26 12 -15 14 -18 14 -8 2z"/>
<path d="M5956 2162 c-2 -4 -1 -14 4 -22 7 -11 9 -9 7 8 -1 24 -3 26 -11 14z"/>
<path d="M6130 2159 c0 -5 5 -7 10 -4 6 3 10 8 10 11 0 2 -4 4 -10 4 -5 0 -10
-5 -10 -11z"/>
<path d="M6175 2160 c3 -5 8 -10 11 -10 2 0 4 5 4 10 0 6 -5 10 -11 10 -5 0
-7 -4 -4 -10z"/>
<path d="M6215 2160 c-3 -5 -1 -10 4 -10 6 0 11 5 11 10 0 6 -2 10 -4 10 -3 0
-8 -4 -11 -10z"/>
<path d="M1395 2151 c-3 -5 -2 -12 3 -15 5 -3 9 1 9 9 0 17 -3 19 -12 6z"/>
<path d="M2821 2144 c0 -11 3 -14 6 -6 3 7 2 16 -1 19 -3 4 -6 -2 -5 -13z"/>
<path d="M5290 2156 c0 -2 8 -10 18 -17 15 -13 16 -12 3 4 -13 16 -21 21 -21
13z"/>
<path d="M5533 2145 c-3 -9 -3 -18 -1 -21 3 -3 8 4 11 16 6 23 -1 27 -10 5z"/>
<path d="M5817 2153 c-10 -9 -9 -23 1 -23 5 0 9 7 9 15 0 17 -1 18 -10 8z"/>
<path d="M1570 2141 c0 -6 4 -13 10 -16 6 -3 7 1 4 9 -7 18 -14 21 -14 7z"/>
<path d="M2844 2139 c-3 -6 -1 -16 5 -22 9 -9 10 -7 5 7 -6 15 -4 17 6 11 9
-5 11 -4 6 3 -9 15 -13 15 -22 1z"/>
<path d="M3019 2133 c-13 -16 -12 -17 3 -5 9 8 23 10 29 6 8 -4 9 -3 5 4 -10
17 -21 15 -37 -5z"/>
<path d="M3150 2136 c7 -7 13 -7 20 0 6 6 3 10 -10 10 -13 0 -16 -4 -10 -10z"/>
<path d="M5440 2135 c-11 -13 -11 -18 0 -28 10 -9 11 -9 6 1 -4 7 -2 19 4 27
7 8 10 15 7 15 -2 0 -10 -7 -17 -15z"/>
<path d="M5593 2143 c4 -3 1 -13 -6 -22 -11 -14 -10 -14 6 -2 20 15 22 31 5
31 -6 0 -8 -3 -5 -7z"/>
<path d="M5990 2138 c0 -4 4 -8 9 -8 6 0 12 4 15 8 3 5 -1 9 -9 9 -8 0 -15 -4
-15 -9z"/>
<path d="M5394 2126 c1 -8 5 -18 8 -22 4 -3 5 1 4 10 -1 8 -5 18 -8 22 -4 3
-5 -1 -4 -10z"/>
<path d="M1473 2107 c-1 -11 -1 -18 0 -16 2 2 8 11 15 20 9 12 9 16 -1 16 -7
0 -14 -9 -14 -20z"/>
<path d="M1596 2115 c-9 -26 -7 -32 5 -12 6 10 9 21 6 23 -2 3 -7 -2 -11 -11z"/>
<path d="M1708 2123 c7 -3 16 -2 19 1 4 3 -2 6 -13 5 -11 0 -14 -3 -6 -6z"/>
<path d="M2795 2120 c-3 -5 -1 -10 4 -10 6 0 11 5 11 10 0 6 -2 10 -4 10 -3 0
-8 -4 -11 -10z"/>
<path d="M3296 2118 c3 -5 10 -6 15 -3 13 9 11 12 -6 12 -8 0 -12 -4 -9 -9z"/>
<path d="M5046 2118 c3 -5 10 -6 15 -3 13 9 11 12 -6 12 -8 0 -12 -4 -9 -9z"/>
<path d="M5834 2108 l-19 -23 23 19 c12 11 22 21 22 23 0 8 -8 2 -26 -19z"/>
<path d="M1548 2113 c7 -3 16 -2 19 1 4 3 -2 6 -13 5 -11 0 -14 -3 -6 -6z"/>
<path d="M2969 2103 c-13 -16 -12 -17 4 -4 16 13 21 21 13 21 -2 0 -10 -8 -17
-17z"/>
<path d="M3055 2110 c-4 -6 -11 -7 -17 -4 -7 4 -8 2 -4 -5 6 -9 11 -9 22 0 14
11 18 19 10 19 -3 0 -8 -5 -11 -10z"/>
<path d="M3093 2105 c0 -8 3 -13 5 -10 3 3 10 0 17 -5 8 -7 12 -5 12 5 0 8 -3
13 -5 10 -3 -3 -10 0 -17 5 -8 7 -12 5 -12 -5z"/>
<path d="M1695 2100 c3 -5 8 -10 11 -10 2 0 4 5 4 10 0 6 -5 10 -11 10 -5 0
-7 -4 -4 -10z"/>
<path d="M2820 2101 c0 -9 30 -24 36 -18 2 1 -6 8 -16 15 -11 7 -20 8 -20 3z"/>
<path d="M2913 2096 c3 -8 2 -17 -4 -20 -5 -2 -4 -3 2 -2 15 3 21 36 7 36 -6
0 -8 -6 -5 -14z"/>
<path d="M3150 2106 c0 -2 7 -7 16 -10 8 -3 12 -2 9 4 -6 10 -25 14 -25 6z"/>
<path d="M5549 2097 c6 -8 7 -18 3 -22 -4 -5 -1 -5 6 -1 10 6 10 11 1 22 -6 8
-14 14 -16 14 -3 0 0 -6 6 -13z"/>
<path d="M5720 2100 c-9 -6 -10 -10 -3 -10 6 0 15 5 18 10 8 12 4 12 -15 0z"/>
<path d="M5986 2102 c-3 -5 1 -9 9 -9 8 0 15 4 15 9 0 4 -4 8 -9 8 -6 0 -12
-4 -15 -8z"/>
<path d="M6396 2093 c-6 -14 -5 -15 5 -6 7 7 10 15 7 18 -3 3 -9 -2 -12 -12z"/>
<path d="M2994 2091 c4 -5 0 -11 -6 -14 -7 -3 -3 -4 9 -4 17 1 19 4 11 14 -12
15 -22 18 -14 4z"/>
<path d="M5493 2085 c0 -8 4 -12 9 -9 5 3 6 10 3 15 -9 13 -12 11 -12 -6z"/>
<path d="M1519 2073 c-13 -16 -12 -17 4 -4 9 7 17 15 17 17 0 8 -8 3 -21 -13z"/>
<path d="M5375 2080 c3 -5 8 -10 11 -10 2 0 4 5 4 10 0 6 -5 10 -11 10 -5 0
-7 -4 -4 -10z"/>
<path d="M6055 2081 c-3 -5 -2 -12 3 -15 5 -3 9 1 9 9 0 17 -3 19 -12 6z"/>
<path d="M2772 2064 c-7 -8 -8 -14 -3 -14 10 0 25 19 20 25 -2 1 -10 -3 -17
-11z"/>
<path d="M5269 2063 c-13 -16 -12 -17 4 -4 16 13 21 21 13 21 -2 0 -10 -8 -17
-17z"/>
<path d="M5749 2063 c-13 -16 -12 -17 4 -4 16 13 21 21 13 21 -2 0 -10 -8 -17
-17z"/>
<path d="M1400 2066 c0 -2 8 -10 18 -17 15 -13 16 -12 3 4 -13 16 -21 21 -21
13z"/>
<path d="M1490 2061 c0 -6 4 -13 10 -16 6 -3 7 1 4 9 -7 18 -14 21 -14 7z"/>
<path d="M1550 2060 c0 -5 5 -10 11 -10 5 0 7 5 4 10 -3 6 -8 10 -11 10 -2 0
-4 -4 -4 -10z"/>
<path d="M2840 2056 c0 -8 4 -17 9 -20 5 -4 7 3 4 14 -6 23 -13 26 -13 6z"/>
<path d="M2920 2060 c-9 -6 -10 -10 -3 -10 6 0 15 5 18 10 8 12 4 12 -15 0z"/>
<path d="M3113 2055 c0 -8 4 -12 9 -9 5 3 6 10 3 15 -9 13 -12 11 -12 -6z"/>
<path d="M2643 2055 c7 -8 -20 -45 -34 -45 -4 0 -15 7 -23 16 -9 8 -16 10 -16
4 0 -6 7 -13 15 -16 8 -4 12 -11 8 -17 -8 -14 16 0 44 26 22 19 22 19 20 -2
-1 -11 -7 -21 -14 -21 -16 0 -17 -16 -1 -26 6 -4 8 -3 4 4 -3 5 -1 12 6 14 18
6 19 45 0 59 -9 7 -14 9 -9 4z"/>
<path d="M5453 2045 c0 -8 4 -12 9 -9 5 3 6 10 3 15 -9 13 -12 11 -12 -6z"/>
<path d="M1290 2039 c0 -5 5 -7 10 -4 6 3 10 8 10 11 0 2 -4 4 -10 4 -5 0 -10
-5 -10 -11z"/>
<path d="M2600 2040 c-13 -8 -13 -10 2 -10 9 0 20 5 23 10 8 13 -5 13 -25 0z"/>
<path d="M2793 2035 c0 -8 4 -12 9 -9 4 3 8 9 8 15 0 5 -4 9 -8 9 -5 0 -9 -7
-9 -15z"/>
<path d="M5546 2042 c-3 -5 1 -9 9 -9 8 0 12 4 9 9 -3 4 -7 8 -9 8 -2 0 -6 -4
-9 -8z"/>
<path d="M5656 2042 c-3 -5 1 -9 9 -9 8 0 12 4 9 9 -3 4 -7 8 -9 8 -2 0 -6 -4
-9 -8z"/>
<path d="M5770 2045 c0 -7 30 -13 34 -7 3 4 -4 9 -15 9 -10 1 -19 0 -19 -2z"/>
<path d="M1610 2031 c-8 -6 -19 -7 -25 -3 -5 3 -4 -1 3 -10 10 -13 10 -17 0
-21 -7 -3 -3 -4 9 -4 18 1 20 4 10 16 -10 12 -9 14 4 9 10 -4 16 -1 16 8 0 8
-1 14 -1 14 -1 0 -8 -4 -16 -9z"/>
<path d="M2877 2033 c-12 -12 -7 -21 16 -26 20 -5 20 -5 5 7 -10 7 -15 16 -11
19 3 4 4 7 1 7 -2 0 -8 -3 -11 -7z"/>
<path d="M2980 2026 c8 -10 15 -25 16 -33 4 -24 13 -27 11 -4 -1 12 -10 30
-21 39 -20 16 -20 16 -6 -2z"/>
<path d="M2681 2014 c0 -11 3 -14 6 -6 3 7 2 16 -1 19 -3 4 -6 -2 -5 -13z"/>
<path d="M2741 2020 c-9 -5 -4 -7 13 -7 29 0 32 2 13 10 -8 3 -20 2 -26 -3z"/>
<path d="M2820 2019 c0 -5 5 -7 10 -4 6 3 10 8 10 11 0 2 -4 4 -10 4 -5 0 -10
-5 -10 -11z"/>
<path d="M2933 2015 c0 -8 4 -12 9 -9 5 3 16 0 25 -8 12 -9 15 -9 9 -1 -12 22
-43 34 -43 18z"/>
<path d="M3259 2028 c-5 -18 -6 -38 -1 -34 7 8 12 36 6 36 -2 0 -4 -1 -5 -2z"/>
<path d="M1555 2011 c-3 -5 -2 -12 3 -15 5 -3 9 1 9 9 0 17 -3 19 -12 6z"/>
<path d="M1509 1997 c6 -8 7 -18 3 -22 -4 -5 -1 -5 6 -1 10 6 10 11 1 22 -6 8
-14 14 -16 14 -3 0 0 -6 6 -13z"/>
<path d="M2398 1988 c-14 -14 -15 -18 -4 -18 8 0 17 7 20 16 9 23 4 24 -16 2z"/>
<path d="M2793 1995 c0 -8 4 -12 9 -9 4 3 8 9 8 15 0 5 -4 9 -8 9 -5 0 -9 -7
-9 -15z"/>
<path d="M3020 2006 c0 -2 8 -10 18 -17 15 -13 16 -12 3 4 -13 16 -21 21 -21
13z"/>
<path d="M3293 1995 c0 -8 4 -12 9 -9 5 3 6 10 3 15 -9 13 -12 11 -12 -6z"/>
<path d="M1717 1984 c6 -15 23 -19 23 -5 0 5 -7 11 -14 14 -10 4 -13 1 -9 -9z"/>
<path d="M1792 1984 c-7 -8 -8 -14 -3 -14 10 0 25 19 20 25 -2 1 -10 -3 -17
-11z"/>
<path d="M2322 1980 c-19 -30 -14 -36 8 -10 22 25 24 30 12 30 -4 0 -13 -9
-20 -20z"/>
<path d="M2360 1985 c-7 -8 -9 -15 -6 -15 4 0 14 7 22 15 9 8 11 15 6 15 -5 0
-15 -7 -22 -15z"/>
<path d="M1310 1979 c0 -5 5 -7 10 -4 6 3 10 8 10 11 0 2 -4 4 -10 4 -5 0 -10
-5 -10 -11z"/>
<path d="M1440 1975 c-7 -8 -9 -15 -5 -15 4 0 1 -8 -6 -17 -13 -16 -12 -17 4
-4 9 8 15 16 12 19 -3 3 0 11 6 19 6 7 9 13 6 13 -2 0 -10 -7 -17 -15z"/>
<path d="M1817 1975 c-6 -15 10 -32 20 -21 4 3 1 6 -5 6 -6 0 -9 7 -6 15 4 8
4 15 1 15 -3 0 -7 -7 -10 -15z"/>
<path d="M1845 1980 c-3 -6 1 -7 9 -4 18 7 21 14 7 14 -6 0 -13 -4 -16 -10z"/>
<path d="M1996 1981 c-9 -13 33 -61 52 -60 13 0 11 3 -5 9 -12 5 -27 19 -33
30 -11 20 -10 21 12 15 18 -5 20 -4 8 4 -18 13 -27 14 -34 2z"/>
<path d="M2050 1982 c0 -13 26 -23 45 -16 8 4 15 11 15 16 0 6 -6 5 -15 -2
-12 -10 -18 -10 -30 0 -9 7 -15 8 -15 2z"/>
<path d="M2435 1980 c3 -5 1 -10 -4 -10 -6 0 -11 -5 -11 -11 0 -8 5 -8 15 1
17 14 20 30 4 30 -5 0 -7 -4 -4 -10z"/>
<path d="M2614 1976 c5 -14 2 -17 -9 -12 -9 3 -14 2 -10 -3 3 -5 -1 -12 -7
-14 -7 -3 -8 -6 -2 -6 5 -1 18 5 27 12 13 9 14 16 6 27 -9 12 -10 12 -5 -4z"/>
<path d="M2700 1980 c8 -5 22 -9 30 -9 10 0 8 3 -5 9 -27 12 -43 12 -25 0z"/>
<path d="M2835 1980 c-3 -5 -1 -10 4 -10 6 0 11 5 11 10 0 6 -2 10 -4 10 -3 0
-8 -4 -11 -10z"/>
<path d="M3071 1967 c-8 -10 -7 -14 2 -14 8 0 14 6 14 14 0 7 -1 13 -2 13 -2
0 -8 -6 -14 -13z"/>
<path d="M1470 1962 c0 -5 7 -9 15 -9 8 0 12 4 9 9 -3 4 -9 8 -15 8 -5 0 -9
-4 -9 -8z"/>
<path d="M1520 1960 c-9 -6 -10 -10 -3 -10 6 0 15 5 18 10 8 12 4 12 -15 0z"/>
<path d="M1554 1940 c1 -16 10 -38 21 -47 19 -17 19 -17 3 2 -8 11 -14 30 -13
43 1 13 -1 25 -5 27 -4 2 -7 -9 -6 -25z"/>
<path d="M1630 1954 c6 -6 7 -14 3 -17 -3 -4 -2 -7 4 -7 6 0 13 8 15 18 4 12
-1 18 -13 18 -12 0 -15 -4 -9 -12z"/>
<path d="M1755 1961 c3 -5 1 -12 -5 -16 -5 -3 -10 -11 -10 -18 0 -6 7 -2 15 9
17 23 19 34 4 34 -5 0 -8 -4 -4 -9z"/>
<path d="M1855 1961 c-3 -6 -3 -11 2 -12 4 0 -1 -5 -12 -10 l-20 -9 20 3 c11
2 19 9 18 15 -2 7 6 12 17 12 11 0 19 -5 18 -12 -2 -6 6 -13 17 -15 18 -3 18
-2 2 5 -10 4 -17 12 -15 17 4 14 -39 19 -47 6z"/>
<path d="M1925 1960 c-3 -5 -2 -10 4 -10 5 0 13 5 16 10 3 6 2 10 -4 10 -5 0
-13 -4 -16 -10z"/>
<path d="M2659 1963 c-1 -4 -1 -12 0 -17 1 -5 -4 -6 -12 -3 -8 3 -20 1 -28 -4
-9 -5 -4 -7 16 -5 17 1 29 8 28 14 -2 7 6 12 16 12 14 0 18 -5 14 -19 -3 -10
-1 -21 4 -24 5 -3 8 7 7 21 0 20 -7 28 -22 30 -12 2 -23 0 -23 -5z"/>
<path d="M2791 1963 c-1 -17 19 -27 31 -15 6 6 6 12 -3 17 -8 5 -10 4 -5 -3 4
-7 3 -12 -3 -12 -5 0 -12 6 -14 13 -4 9 -6 9 -6 0z"/>
<path d="M3259 1968 c-5 -18 -6 -38 -1 -34 7 8 12 36 6 36 -2 0 -4 -1 -5 -2z"/>
<path d="M2055 1943 c16 -9 43 -29 60 -44 16 -16 35 -29 41 -29 7 0 14 -7 18
-15 4 -10 -1 -14 -16 -12 -13 1 -22 -4 -23 -15 -2 -10 1 -18 7 -18 6 0 7 7 4
16 -5 12 -2 15 10 10 9 -3 20 -4 25 0 13 8 -9 44 -27 44 -8 0 -13 4 -9 10 3 5
12 7 19 4 7 -3 16 2 19 10 4 9 2 16 -3 16 -6 0 -10 -5 -10 -12 0 -6 -10 -2
-23 10 -13 12 -27 22 -32 22 -4 0 2 -9 14 -19 12 -11 18 -22 13 -25 -5 -3 -19
5 -31 18 -22 23 -22 25 -4 35 10 6 13 11 8 11 -6 0 -16 -5 -22 -11 -8 -8 -17
-8 -31 0 -11 6 -24 11 -29 11 -4 -1 5 -8 22 -17z"/>
<path d="M2335 1950 c3 -5 8 -10 11 -10 2 0 4 5 4 10 0 6 -5 10 -11 10 -5 0
-7 -4 -4 -10z"/>
<path d="M2364 1949 c-8 -14 25 -49 45 -48 13 0 14 2 1 6 -17 7 -40 29 -40 38
0 3 9 3 20 0 11 -3 20 -3 20 2 0 12 -38 14 -46 2z"/>
<path d="M2853 1945 c0 -8 5 -11 10 -8 6 4 8 0 4 -10 -4 -11 -2 -14 9 -10 13
5 13 8 -2 24 -21 23 -21 23 -21 4z"/>
<path d="M2921 1940 c-13 -11 -18 -20 -13 -20 6 0 14 5 17 10 4 6 10 8 14 6 4
-3 8 1 8 9 0 8 -1 15 -1 15 -1 -1 -12 -10 -25 -20z"/>
<path d="M2995 1950 c-4 -6 -10 -8 -14 -6 -4 3 -8 -1 -8 -9 0 -13 4 -12 19 2
18 16 22 23 14 23 -3 0 -8 -5 -11 -10z"/>
<path d="M1700 1940 c8 -5 20 -10 25 -10 6 0 3 5 -5 10 -8 5 -19 10 -25 10 -5
0 -3 -5 5 -10z"/>
<path d="M1790 1940 c-12 -7 -10 -9 7 -7 12 0 19 5 17 9 -6 10 -6 10 -24 -2z"/>
<path d="M2501 1941 c-10 -6 -9 -10 6 -16 10 -5 21 -7 26 -7 4 1 7 -8 7 -20 0
-20 -1 -21 -20 -3 -24 21 -27 14 -4 -9 18 -19 34 -13 34 13 0 24 -32 52 -49
42z"/>
<path d="M2721 1941 c-8 -5 -9 -11 -3 -15 5 -3 12 1 16 9 6 17 6 18 -13 6z"/>
<path d="M2764 1939 c-3 -6 -1 -16 5 -22 9 -9 10 -7 5 7 -6 15 -4 17 6 11 9
-5 11 -4 6 3 -9 15 -13 15 -22 1z"/>
<path d="M3110 1946 c0 -2 7 -7 16 -10 8 -3 12 -2 9 4 -6 10 -25 14 -25 6z"/>
<path d="M2310 1929 c0 -5 4 -8 9 -5 5 3 14 -1 21 -9 10 -12 10 -18 0 -30 -7
-9 -8 -15 -2 -15 5 0 13 7 16 16 5 13 9 14 21 4 9 -7 18 -10 22 -6 3 3 2 6 -3
6 -5 0 -22 11 -38 25 -31 27 -46 31 -46 14z"/>
<path d="M2415 1930 c-3 -5 -1 -10 4 -10 6 0 11 5 11 10 0 6 -2 10 -4 10 -3 0
-8 -4 -11 -10z"/>
<path d="M2457 1920 c-8 -11 -17 -17 -20 -13 -4 3 -7 1 -7 -6 0 -18 21 -9 38
17 18 27 8 29 -11 2z"/>
<path d="M1678 1911 c5 -14 4 -14 -14 -1 -18 14 -18 14 -5 -2 17 -23 27 -23
33 0 3 11 0 19 -7 19 -8 0 -11 -7 -7 -16z"/>
<path d="M1752 1901 c-8 -22 -8 -29 1 -25 7 2 13 15 13 29 2 33 -2 32 -14 -4z"/>
<path d="M1870 1920 c0 -5 5 -10 10 -10 6 0 10 5 10 10 0 6 -4 10 -10 10 -5 0
-10 -4 -10 -10z"/>
<path d="M1990 1920 c0 -5 5 -10 10 -10 6 0 10 5 10 10 0 6 -4 10 -10 10 -5 0
-10 -4 -10 -10z"/>
<path d="M2220 1919 c0 -5 5 -7 10 -4 6 3 10 8 10 11 0 2 -4 4 -10 4 -5 0 -10
-5 -10 -11z"/>
<path d="M2570 1915 c-11 -13 -10 -14 4 -9 9 3 16 10 16 15 0 13 -6 11 -20 -6z"/>
<path d="M2673 1912 c0 -11 5 -18 9 -16 4 3 8 0 8 -7 0 -7 3 -10 6 -6 3 3 -1
16 -9 28 -16 22 -16 22 -14 1z"/>
<path d="M3031 1913 c7 -12 15 -20 18 -17 3 2 -3 12 -13 22 -17 16 -18 16 -5
-5z"/>
<path d="M1801 1904 c0 -11 3 -14 6 -6 3 7 2 16 -1 19 -3 4 -6 -2 -5 -13z"/>
<path d="M2070 1905 c0 -8 4 -15 10 -15 5 0 7 7 4 15 -4 8 -8 15 -10 15 -2 0
-4 -7 -4 -15z"/>
<path d="M2201 1913 c-1 -6 -4 -20 -7 -30 -5 -17 -5 -17 6 0 6 10 9 23 6 30
-3 9 -5 9 -5 0z"/>
<path d="M2481 1903 c-1 -13 -6 -22 -12 -20 -6 1 -13 -4 -14 -11 -2 -7 -1 -8
2 -2 2 5 9 8 14 4 11 -7 23 21 16 38 -3 7 -6 3 -6 -9z"/>
<path d="M2592 1904 c-7 -8 -8 -14 -3 -14 10 0 25 19 20 25 -2 1 -10 -3 -17
-11z"/>
<path d="M2632 1900 c0 -14 2 -19 5 -12 2 6 2 18 0 25 -3 6 -5 1 -5 -13z"/>
<path d="M2995 1910 c-4 -6 -11 -8 -16 -5 -5 4 -9 1 -9 -4 0 -16 16 -13 30 4
7 8 10 15 7 15 -3 0 -9 -5 -12 -10z"/>
<path d="M1845 1900 c3 -5 8 -10 11 -10 2 0 4 5 4 10 0 6 -5 10 -11 10 -5 0
-7 -4 -4 -10z"/>
<path d="M2310 1900 c0 -5 5 -10 10 -10 6 0 10 5 10 10 0 6 -4 10 -10 10 -5 0
-10 -4 -10 -10z"/>
<path d="M2730 1899 c0 -5 4 -8 9 -4 5 3 12 1 16 -5 3 -5 11 -10 18 -10 6 0 2
7 -9 15 -23 17 -34 19 -34 4z"/>
<path d="M2874 1898 c-4 -7 -4 -10 1 -6 4 4 15 2 24 -5 14 -11 14 -10 2 6 -16
20 -18 21 -27 5z"/>
<path d="M1816 1883 c-6 -14 -5 -15 5 -6 7 7 10 15 7 18 -3 3 -9 -2 -12 -12z"/>
<path d="M1953 1865 c0 -14 3 -25 8 -25 4 0 6 10 4 21 -6 32 -12 34 -12 4z"/>
<path d="M2095 1880 c-3 -5 -3 -14 0 -20 8 -13 35 -13 35 0 0 5 -7 7 -15 4
-11 -5 -13 -2 -9 10 7 18 -1 22 -11 6z"/>
<path d="M2269 1877 c-9 -7 -14 -19 -11 -27 5 -13 3 -13 -11 -1 -10 7 -17 9
-17 3 0 -23 31 -21 40 2 5 13 15 26 22 29 7 3 9 6 3 6 -5 0 -17 -5 -26 -12z"/>
<path d="M2410 1881 c0 -6 4 -11 9 -11 5 0 12 -8 14 -17 4 -15 5 -15 6 -2 0 9
-6 22 -14 29 -10 9 -15 9 -15 1z"/>
<path d="M2550 1866 c-8 -15 -19 -23 -31 -21 -10 2 -22 -2 -25 -8 -4 -7 -4 -9
1 -5 4 4 14 0 22 -10 12 -16 13 -16 6 2 -4 13 -3 17 5 12 7 -4 15 -1 18 8 3 9
9 14 13 12 4 -3 8 4 8 15 2 25 -1 24 -17 -5z"/>
<path d="M2828 1883 c6 -2 9 -10 6 -15 -4 -7 -2 -8 5 -4 13 9 5 26 -12 25 -9
0 -8 -2 1 -6z"/>
<path d="M2940 1886 c0 -2 8 -10 18 -17 15 -13 16 -12 3 4 -13 16 -21 21 -21
13z"/>
<path d="M3130 1880 c0 -5 5 -10 11 -10 5 0 7 5 4 10 -3 6 -8 10 -11 10 -2 0
-4 -4 -4 -10z"/>
<path d="M3239 1888 c-5 -18 -6 -38 -1 -34 7 8 12 36 6 36 -2 0 -4 -1 -5 -2z"/>
<path d="M1275 1871 c-3 -5 -2 -12 3 -15 5 -3 9 1 9 9 0 17 -3 19 -12 6z"/>
<path d="M1655 1870 c-3 -6 -18 -8 -32 -6 -14 3 -22 2 -19 -2 14 -13 63 -10
63 4 0 17 -4 18 -12 4z"/>
<path d="M1850 1869 c0 -5 -4 -8 -9 -4 -5 3 -12 1 -15 -4 -4 -5 2 -8 11 -7 15
3 33 26 19 26 -3 0 -6 -5 -6 -11z"/>
<path d="M2206 1865 c-9 -26 -7 -32 5 -12 6 10 9 21 6 23 -2 3 -7 -2 -11 -11z"/>
<path d="M2310 1871 c0 -10 19 -25 25 -20 1 2 -3 10 -11 17 -8 7 -14 8 -14 3z"/>
<path d="M2357 1866 c-4 -9 -3 -15 2 -12 5 3 11 -1 15 -9 6 -16 36 -10 36 7 0
6 -8 4 -17 -3 -15 -12 -16 -12 -10 4 4 10 3 16 -2 12 -5 -3 -11 0 -13 7 -3 7
-7 5 -11 -6z"/>
<path d="M2676 1867 c3 -10 9 -15 12 -12 3 3 0 11 -7 18 -10 9 -11 8 -5 -6z"/>
<path d="M1695 1859 c-3 -4 2 -6 10 -5 21 3 28 13 10 13 -9 0 -18 -4 -20 -8z"/>
<path d="M1770 1858 c0 -4 4 -8 9 -8 6 0 12 4 15 8 3 5 -1 9 -9 9 -8 0 -15 -4
-15 -9z"/>
<path d="M1900 1860 c-18 -12 -2 -12 25 0 13 6 15 9 5 9 -8 0 -22 -4 -30 -9z"/>
<path d="M2477 1855 c-8 -8 -18 -11 -22 -7 -5 4 -5 1 -1 -6 6 -11 12 -10 29 5
12 10 24 19 26 20 2 2 -1 3 -7 3 -6 0 -17 -7 -25 -15z"/>
<path d="M2610 1860 c0 -5 5 -10 10 -10 6 0 10 5 10 10 0 6 -4 10 -10 10 -5 0
-10 -4 -10 -10z"/>
<path d="M2910 1855 c5 -7 6 -16 2 -21 -4 -5 -3 -5 2 -1 15 12 15 34 0 34 -9
0 -11 -4 -4 -12z"/>
<path d="M2720 1856 c0 -2 7 -7 16 -10 8 -3 12 -2 9 4 -6 10 -25 14 -25 6z"/>
<path d="M1560 1840 c-9 -6 -10 -10 -3 -10 6 0 15 5 18 10 8 12 4 12 -15 0z"/>
<path d="M1720 1835 c-9 -11 -15 -13 -20 -5 -5 8 -9 7 -13 -2 -8 -21 20 -18
40 4 9 10 14 18 11 18 -3 0 -11 -7 -18 -15z"/>
<path d="M2076 1833 c-6 -14 -5 -15 5 -6 7 7 10 15 7 18 -3 3 -9 -2 -12 -12z"/>
<path d="M2293 1834 c-3 -8 -3 -18 1 -21 3 -4 6 1 6 10 0 10 5 14 15 11 8 -4
15 -4 15 -1 0 14 -31 15 -37 1z"/>
<path d="M2579 1848 c-8 -27 -5 -36 9 -30 10 4 12 7 4 10 -7 2 -10 8 -6 13 3
5 3 9 0 9 -3 0 -6 -1 -7 -2z"/>
<path d="M2635 1839 c-4 -6 -5 -12 -2 -15 2 -3 7 2 10 11 7 17 1 20 -8 4z"/>
<path d="M2864 1842 c4 -3 14 -7 22 -8 9 -1 13 0 10 4 -4 3 -14 7 -22 8 -9 1
-13 0 -10 -4z"/>
<path d="M2946 1842 c-3 -5 1 -9 9 -9 8 0 12 4 9 9 -3 4 -7 8 -9 8 -2 0 -6 -4
-9 -8z"/>
<path d="M2987 1839 c7 -7 15 -10 18 -7 3 3 -2 9 -12 12 -14 6 -15 5 -6 -5z"/>
<path d="M1659 1838 c-5 -18 -6 -38 -1 -34 7 8 12 36 6 36 -2 0 -4 -1 -5 -2z"/>
<path d="M1857 1819 c6 -23 9 -24 16 -5 3 8 0 17 -7 19 -10 4 -12 -1 -9 -14z"/>
<path d="M1907 1828 c-4 -13 -1 -16 15 -13 11 3 23 7 27 11 3 4 -2 4 -11 1 -9
-3 -18 -1 -21 6 -2 6 -6 4 -10 -5z"/>
<path d="M2341 1828 c-1 -20 14 -24 25 -6 4 6 3 8 -4 4 -5 -3 -13 0 -15 6 -3
8 -6 6 -6 -4z"/>
<path d="M1799 1825 c-8 -30 4 -55 25 -55 6 0 3 5 -6 10 -10 6 -15 19 -13 30
3 17 -2 30 -6 15z"/>
<path d="M1970 1820 c0 -5 5 -10 10 -10 6 0 10 5 10 10 0 6 -4 10 -10 10 -5 0
-10 -4 -10 -10z"/>
<path d="M2095 1819 c-11 -16 -1 -19 13 -3 7 8 8 14 3 14 -5 0 -13 -5 -16 -11z"/>
<path d="M2190 1820 c0 -6 6 -13 14 -16 8 -3 12 -13 9 -25 -3 -10 -3 -19 0
-19 15 0 12 40 -4 54 -11 9 -19 11 -19 6z"/>
<path d="M2226 1816 c10 -8 21 -12 24 -10 5 6 -21 24 -34 24 -6 0 -1 -6 10
-14z"/>
<path d="M2271 1814 c0 -11 3 -14 6 -6 3 7 2 16 -1 19 -3 4 -6 -2 -5 -13z"/>
<path d="M2410 1820 c0 -5 5 -10 10 -10 6 0 10 5 10 10 0 6 -4 10 -10 10 -5 0
-10 -4 -10 -10z"/>
<path d="M2447 1819 c7 -7 15 -10 18 -7 3 3 -2 9 -12 12 -14 6 -15 5 -6 -5z"/>
<path d="M2545 1819 c-4 -6 -5 -12 -2 -15 2 -3 7 2 10 11 7 17 1 20 -8 4z"/>
<path d="M2650 1826 c0 -2 7 -7 16 -10 8 -3 12 -2 9 4 -6 10 -25 14 -25 6z"/>
<path d="M2819 1813 c-12 -16 -12 -17 2 -6 9 7 19 10 22 6 4 -3 7 -1 7 5 0 17
-16 15 -31 -5z"/>
<path d="M2390 1811 c0 -6 4 -13 10 -16 6 -3 7 1 4 9 -7 18 -14 21 -14 7z"/>
<path d="M2472 1796 c-9 -19 -8 -24 3 -22 8 1 18 6 22 11 4 4 2 5 -6 0 -10 -6
-12 -2 -6 14 9 28 1 27 -13 -3z"/>
<path d="M1746 1798 c3 -5 10 -6 15 -3 13 9 11 12 -6 12 -8 0 -12 -4 -9 -9z"/>
<path d="M1820 1806 c0 -2 8 -10 18 -17 15 -13 16 -12 3 4 -13 16 -21 21 -21
13z"/>
<path d="M1947 1789 c6 -23 9 -24 16 -5 3 8 0 17 -7 19 -10 4 -12 -1 -9 -14z"/>
<path d="M2110 1800 c0 -5 5 -10 11 -10 5 0 7 5 4 10 -3 6 -8 10 -11 10 -2 0
-4 -4 -4 -10z"/>
<path d="M2150 1800 c-8 -5 -10 -10 -5 -10 6 0 17 5 25 10 8 5 11 10 5 10 -5
0 -17 -5 -25 -10z"/>
<path d="M2310 1800 c0 -5 5 -10 10 -10 6 0 10 5 10 10 0 6 -4 10 -10 10 -5 0
-10 -4 -10 -10z"/>
<path d="M2641 1789 c12 -24 26 -31 26 -14 0 8 -5 11 -10 8 -6 -4 -8 0 -5 9 4
8 0 15 -7 15 -10 0 -11 -5 -4 -18z"/>
<path d="M2430 1789 c0 -5 5 -7 10 -4 6 3 10 8 10 11 0 2 -4 4 -10 4 -5 0 -10
-5 -10 -11z"/>
<path d="M2835 1790 c-4 -6 -12 -7 -18 -4 -7 4 -8 3 -4 -1 13 -15 34 -14 34 1
0 17 -4 18 -12 4z"/>
<path d="M1770 1781 c0 -6 4 -13 10 -16 6 -3 7 1 4 9 -7 18 -14 21 -14 7z"/>
<path d="M1866 1778 c3 -5 10 -6 15 -3 13 9 11 12 -6 12 -8 0 -12 -4 -9 -9z"/>
<path d="M2010 1778 c0 -4 4 -8 9 -8 6 0 12 4 15 8 3 5 -1 9 -9 9 -8 0 -15 -4
-15 -9z"/>
<path d="M2065 1779 c-4 -6 -4 -13 -1 -16 3 -4 6 -1 6 6 0 8 6 11 16 7 8 -3
12 -2 9 4 -8 13 -22 13 -30 -1z"/>
<path d="M2170 1786 c0 -2 7 -7 16 -10 8 -3 12 -2 9 4 -6 10 -25 14 -25 6z"/>
<path d="M2240 1780 c-8 -5 -10 -10 -5 -10 6 0 17 5 25 10 8 5 11 10 5 10 -5
0 -17 -5 -25 -10z"/>
<path d="M2285 1780 c3 -5 8 -10 11 -10 2 0 4 5 4 10 0 6 -5 10 -11 10 -5 0
-7 -4 -4 -10z"/>
<path d="M2340 1779 c0 -5 5 -7 10 -4 6 3 10 8 10 11 0 2 -4 4 -10 4 -5 0 -10
-5 -10 -11z"/>
<path d="M2370 1787 c0 -3 15 -10 32 -16 18 -6 28 -7 23 -2 -12 10 -55 25 -55
18z"/>
<path d="M2550 1781 c0 -6 4 -13 10 -16 6 -3 7 1 4 9 -7 18 -14 21 -14 7z"/>
<path d="M2595 1780 c3 -5 8 -10 11 -10 2 0 4 5 4 10 0 6 -5 10 -11 10 -5 0
-7 -4 -4 -10z"/>
<path d="M2711 1770 c-13 -11 -19 -20 -13 -20 5 0 15 7 22 15 7 8 16 12 21 9
5 -3 9 0 9 5 0 16 -12 13 -39 -9z"/>
<path d="M1975 1770 c-3 -6 1 -7 9 -4 18 7 21 14 7 14 -6 0 -13 -4 -16 -10z"/>
<path d="M2310 1760 c0 -5 5 -10 10 -10 6 0 10 5 10 10 0 6 -4 10 -10 10 -5 0
-10 -4 -10 -10z"/>
<path d="M2508 1763 c7 -3 16 -2 19 1 4 3 -2 6 -13 5 -11 0 -14 -3 -6 -6z"/>
<path d="M3095 1763 c3 -3 0 -11 -5 -18 -7 -8 -5 -12 4 -12 14 0 16 22 3 32
-4 3 -5 2 -2 -2z"/>
<path d="M2092 1740 c0 -14 2 -19 5 -12 2 6 2 18 0 25 -3 6 -5 1 -5 -13z"/>
<path d="M2184 1748 c3 -15 26 -23 26 -8 0 6 -4 9 -9 6 -5 -4 -12 -1 -14 4 -3
6 -4 5 -3 -2z"/>
<path d="M2813 1745 c0 -8 4 -12 9 -9 5 3 6 10 3 15 -9 13 -12 11 -12 -6z"/>
<path d="M1910 1740 c0 -5 9 -8 20 -7 21 1 18 10 -5 13 -8 1 -15 -2 -15 -6z"/>
<path d="M2110 1743 c0 -6 8 -17 18 -24 16 -13 16 -13 2 6 -8 11 -16 22 -17
24 -2 2 -3 0 -3 -6z"/>
<path d="M2272 1745 c4 -5 3 -13 -2 -20 -7 -8 -5 -12 5 -12 8 0 11 5 8 10 -4
6 0 8 10 4 25 -9 21 0 -5 14 -13 6 -20 8 -16 4z"/>
<path d="M2344 1735 c-18 -15 -18 -15 0 -8 12 4 17 3 13 -4 -3 -5 0 -10 8 -10
10 0 12 4 5 12 -5 7 -7 15 -3 18 12 13 -3 7 -23 -8z"/>
<path d="M2430 1746 c0 -2 7 -7 16 -10 8 -3 12 -2 9 4 -6 10 -25 14 -25 6z"/>
<path d="M2496 1738 c3 -5 10 -6 15 -3 13 9 11 12 -6 12 -8 0 -12 -4 -9 -9z"/>
<path d="M2610 1740 c0 -5 5 -10 11 -10 5 0 7 5 4 10 -3 6 -8 10 -11 10 -2 0
-4 -4 -4 -10z"/>
<path d="M2846 1742 c-2 -4 4 -8 14 -8 10 0 16 4 14 8 -3 4 -9 8 -14 8 -5 0
-11 -4 -14 -8z"/>
<path d="M2470 1736 c0 -2 8 -10 18 -17 15 -13 16 -12 3 4 -13 16 -21 21 -21
13z"/>
<path d="M2755 1731 c-3 -5 -2 -12 3 -15 5 -3 9 1 9 9 0 17 -3 19 -12 6z"/>
<path d="M1990 1721 c0 -6 4 -13 10 -16 6 -3 7 1 4 9 -7 18 -14 21 -14 7z"/>
<path d="M2520 1720 c-9 -6 -10 -10 -3 -10 6 0 15 5 18 10 8 12 4 12 -15 0z"/>
<path d="M2591 1713 c7 -12 15 -20 18 -17 3 2 -3 12 -13 22 -17 16 -18 16 -5
-5z"/>
<path d="M1833 1705 c0 -8 4 -12 9 -9 5 3 6 10 3 15 -9 13 -12 11 -12 -6z"/>
<path d="M1896 1707 c3 -10 9 -15 12 -12 3 3 0 11 -7 18 -10 9 -11 8 -5 -6z"/>
<path d="M2450 1716 c0 -2 8 -10 18 -17 15 -13 16 -12 3 4 -13 16 -21 21 -21
13z"/>
<path d="M2789 1703 c-13 -16 -12 -17 4 -4 9 7 17 15 17 17 0 8 -8 3 -21 -13z"/>
<path d="M1610 1706 c0 -2 7 -7 16 -10 8 -3 12 -2 9 4 -6 10 -25 14 -25 6z"/>
<path d="M1787 1699 c7 -7 15 -10 18 -7 3 3 -2 9 -12 12 -14 6 -15 5 -6 -5z"/>
<path d="M2093 1694 c0 -9 4 -11 12 -4 7 5 14 9 16 7 2 -1 3 0 1 2 -7 11 -29
7 -29 -5z"/>
<path d="M2420 1700 c-9 -6 -10 -10 -3 -10 6 0 15 5 18 10 8 12 4 12 -15 0z"/>
<path d="M2870 1699 c0 -5 5 -7 10 -4 6 3 10 8 10 11 0 2 -4 4 -10 4 -5 0 -10
-5 -10 -11z"/>
<path d="M1736 1682 c-3 -5 1 -9 9 -9 8 0 12 4 9 9 -3 4 -7 8 -9 8 -2 0 -6 -4
-9 -8z"/>
<path d="M2026 1678 c3 -4 9 -8 15 -8 5 0 9 4 9 8 0 5 -7 9 -15 9 -8 0 -12 -4
-9 -9z"/>
<path d="M2273 1674 c16 -20 52 -30 41 -12 -4 5 -9 7 -12 4 -3 -3 -15 2 -26
11 -21 18 -21 18 -3 -3z"/>
<path d="M2360 1675 c-7 -8 -17 -12 -23 -8 -6 4 -7 1 -3 -6 6 -9 13 -8 27 5
10 9 19 19 19 21 0 7 -8 2 -20 -12z"/>
<path d="M2100 1665 c0 -2 6 -8 13 -14 10 -8 14 -7 14 2 0 8 -6 14 -14 14 -7
0 -13 -1 -13 -2z"/>
<path d="M2190 1661 c0 -6 4 -13 10 -16 6 -3 7 1 4 9 -7 18 -14 21 -14 7z"/>
<path d="M2214 1662 c4 -3 14 -7 22 -8 9 -1 13 0 10 4 -4 3 -14 7 -22 8 -9 1
-13 0 -10 -4z"/>
<path d="M2416 1658 c3 -5 10 -6 15 -3 13 9 11 12 -6 12 -8 0 -12 -4 -9 -9z"/>
<path d="M2606 1658 c3 -5 10 -6 15 -3 13 9 11 12 -6 12 -8 0 -12 -4 -9 -9z"/>
<path d="M2870 1666 c0 -2 7 -7 16 -10 8 -3 12 -2 9 4 -6 10 -25 14 -25 6z"/>
<path d="M1893 1645 c0 -8 4 -12 9 -9 5 3 6 10 3 15 -9 13 -12 11 -12 -6z"/>
<path d="M2393 1645 c0 -8 4 -12 9 -9 5 3 6 10 3 15 -9 13 -12 11 -12 -6z"/>
<path d="M2755 1629 c-4 -6 -5 -12 -2 -15 2 -3 7 2 10 11 7 17 1 20 -8 4z"/>
<path d="M1747 1619 c7 -7 15 -10 18 -7 3 3 -2 9 -12 12 -14 6 -15 5 -6 -5z"/>
<path d="M2000 1620 c-9 -6 -10 -10 -3 -10 6 0 15 5 18 10 8 12 4 12 -15 0z"/>
<path d="M2073 1615 c0 -8 4 -12 9 -9 4 3 8 9 8 15 0 5 -4 9 -8 9 -5 0 -9 -7
-9 -15z"/>
<path d="M2135 1601 c-3 -5 -2 -12 3 -15 5 -3 9 1 9 9 0 17 -3 19 -12 6z"/>
<path d="M2456 1602 c-3 -5 1 -9 9 -9 8 0 12 4 9 9 -3 4 -7 8 -9 8 -2 0 -6 -4
-9 -8z"/>
<path d="M2515 1600 c3 -5 8 -10 11 -10 2 0 4 5 4 10 0 6 -5 10 -11 10 -5 0
-7 -4 -4 -10z"/>
<path d="M2950 1556 c0 -2 8 -10 18 -17 15 -13 16 -12 3 4 -13 16 -21 21 -21
13z"/>
<path d="M2916 1493 c-6 -14 -5 -15 5 -6 7 7 10 15 7 18 -3 3 -9 -2 -12 -12z"/>
<path d="M3313 1455 c0 -8 4 -12 9 -9 5 3 6 10 3 15 -9 13 -12 11 -12 -6z"/>
<path d="M4500 1466 c0 -2 8 -10 18 -17 15 -13 16 -12 3 4 -13 16 -21 21 -21
13z"/>
<path d="M4370 1440 c0 -5 5 -10 11 -10 5 0 7 5 4 10 -3 6 -8 10 -11 10 -2 0
-4 -4 -4 -10z"/>
<path d="M3355 1431 c-3 -5 -2 -12 3 -15 5 -3 9 1 9 9 0 17 -3 19 -12 6z"/>
<path d="M3146 1418 c3 -4 9 -8 15 -8 5 0 9 4 9 8 0 5 -7 9 -15 9 -8 0 -12 -4
-9 -9z"/>
<path d="M3266 1420 c5 -8 9 -18 9 -22 0 -3 3 -9 7 -13 3 -4 5 0 4 9 -1 9 -8
22 -16 29 -10 10 -11 9 -4 -3z"/>
<path d="M3310 1406 c0 -2 7 -7 16 -10 8 -3 12 -2 9 4 -6 10 -25 14 -25 6z"/>
<path d="M4490 1400 c0 -5 5 -10 11 -10 5 0 7 5 4 10 -3 6 -8 10 -11 10 -2 0
-4 -4 -4 -10z"/>
<path d="M3299 1373 c-13 -16 -12 -17 4 -4 16 13 21 21 13 21 -2 0 -10 -8 -17
-17z"/>
<path d="M4350 1358 c0 -4 4 -8 9 -8 6 0 12 4 15 8 3 5 -1 9 -9 9 -8 0 -15 -4
-15 -9z"/>
<path d="M4595 1360 c-3 -5 -1 -10 4 -10 6 0 11 5 11 10 0 6 -2 10 -4 10 -3 0
-8 -4 -11 -10z"/>
<path d="M4435 1351 c-3 -5 -2 -12 3 -15 5 -3 9 1 9 9 0 17 -3 19 -12 6z"/>
<path d="M3264 1322 c4 -3 14 -7 22 -8 9 -1 13 0 10 4 -4 3 -14 7 -22 8 -9 1
-13 0 -10 -4z"/>
<path d="M4530 1320 c0 -5 5 -10 11 -10 5 0 7 5 4 10 -3 6 -8 10 -11 10 -2 0
-4 -4 -4 -10z"/>
<path d="M2953 1307 c0 -8 6 -14 14 -14 9 0 10 4 2 14 -6 7 -12 13 -14 13 -1
0 -2 -6 -2 -13z"/>
<path d="M4397 1313 c-10 -9 -9 -23 1 -23 5 0 9 7 9 15 0 17 -1 18 -10 8z"/>
<path d="M4475 1310 c-4 -6 -12 -7 -18 -4 -7 4 -8 3 -4 -1 13 -15 34 -14 34 1
0 17 -4 18 -12 4z"/>
<path d="M3164 1302 c4 -3 14 -7 22 -8 9 -1 13 0 10 4 -4 3 -14 7 -22 8 -9 1
-13 0 -10 -4z"/>
<path d="M3219 1293 c-13 -17 -13 -17 6 -3 11 8 22 16 24 17 2 2 0 3 -6 3 -6
0 -17 -8 -24 -17z"/>
<path d="M4313 1290 c5 -29 13 -33 13 -5 0 14 -4 25 -8 25 -4 0 -7 -9 -5 -20z"/>
<path d="M4590 1300 c0 -5 5 -10 11 -10 5 0 7 5 4 10 -3 6 -8 10 -11 10 -2 0
-4 -4 -4 -10z"/>
<path d="M4750 1300 c0 -5 5 -10 11 -10 5 0 7 5 4 10 -3 6 -8 10 -11 10 -2 0
-4 -4 -4 -10z"/>
<path d="M3119 1298 c-5 -19 -8 -50 -4 -46 7 7 15 48 9 48 -2 0 -4 -1 -5 -2z"/>
<path d="M3306 1283 c-6 -14 -5 -15 5 -6 7 7 10 15 7 18 -3 3 -9 -2 -12 -12z"/>
<path d="M4513 1285 c0 -8 4 -12 9 -9 5 3 6 10 3 15 -9 13 -12 11 -12 -6z"/>
<path d="M4695 1281 c-3 -5 -2 -12 3 -15 5 -3 9 1 9 9 0 17 -3 19 -12 6z"/>
<path d="M3074 1256 c0 -12 6 -23 13 -23 9 0 10 4 3 12 -5 7 -7 14 -4 17 3 3
1 8 -3 11 -5 3 -9 -5 -9 -17z"/>
<path d="M4382 1264 c10 -10 20 -16 22 -13 3 3 -5 11 -17 18 -21 13 -21 12 -5
-5z"/>
<path d="M4454 1260 c0 -13 4 -16 10 -10 7 7 7 13 0 20 -6 6 -10 3 -10 -10z"/>
<path d="M4835 1269 c-4 -6 -5 -12 -2 -15 2 -3 7 2 10 11 7 17 1 20 -8 4z"/>
<path d="M2955 1260 c3 -5 8 -10 11 -10 2 0 4 5 4 10 0 6 -5 10 -11 10 -5 0
-7 -4 -4 -10z"/>
<path d="M3232 1265 c3 -3 16 -8 28 -10 12 -2 20 -1 16 2 -4 4 -16 8 -28 10
-12 2 -19 1 -16 -2z"/>
<path d="M2890 1240 c0 -5 5 -10 11 -10 5 0 7 5 4 10 -3 6 -8 10 -11 10 -2 0
-4 -4 -4 -10z"/>
<path d="M3197 1228 c19 -21 31 -24 14 -4 -9 11 -9 15 1 19 7 3 3 4 -9 4 -21
-1 -21 -2 -6 -19z"/>
<path d="M4650 1239 c0 -5 5 -7 10 -4 6 3 10 8 10 11 0 2 -4 4 -10 4 -5 0 -10
-5 -10 -11z"/>
<path d="M4686 1242 c-3 -5 1 -9 9 -9 8 0 12 4 9 9 -3 4 -7 8 -9 8 -2 0 -6 -4
-9 -8z"/>
<path d="M3150 1215 c5 -7 6 -16 2 -21 -4 -5 -3 -5 2 -1 15 12 15 34 0 34 -9
0 -11 -4 -4 -12z"/>
<path d="M2856 1198 c3 -4 11 -5 19 -1 21 7 19 12 -4 10 -11 0 -18 -5 -15 -9z"/>
<path d="M2986 1198 c3 -4 9 -8 15 -8 5 0 9 4 9 8 0 5 -7 9 -15 9 -8 0 -12 -4
-9 -9z"/>
<path d="M3110 1206 c0 -2 7 -7 16 -10 8 -3 12 -2 9 4 -6 10 -25 14 -25 6z"/>
<path d="M4425 1200 c-3 -6 1 -7 9 -4 18 7 21 14 7 14 -6 0 -13 -4 -16 -10z"/>
<path d="M4446 1182 l-19 -27 24 22 c12 12 21 24 18 27 -2 2 -13 -8 -23 -22z"/>
<path d="M4500 1205 c0 -2 6 -8 13 -14 10 -8 14 -7 14 2 0 8 -6 14 -14 14 -7
0 -13 -1 -13 -2z"/>
<path d="M4735 1200 c3 -5 8 -10 11 -10 2 0 4 5 4 10 0 6 -5 10 -11 10 -5 0
-7 -4 -4 -10z"/>
<path d="M3094 1186 c1 -8 5 -18 8 -22 4 -3 5 1 4 10 -1 8 -5 18 -8 22 -4 3
-5 -1 -4 -10z"/>
<path d="M4353 1183 c0 -7 4 -10 8 -7 4 2 9 -1 11 -8 3 -7 7 -4 10 8 3 14 0
20 -12 20 -9 0 -17 -6 -17 -13z"/>
<path d="M3170 1178 c0 -4 4 -8 9 -8 6 0 12 4 15 8 3 5 -1 9 -9 9 -8 0 -15 -4
-15 -9z"/>
<path d="M3273 1169 c-2 -23 3 -25 10 -4 4 8 3 16 -1 19 -4 3 -9 -4 -9 -15z"/>
<path d="M4480 1186 c0 -2 8 -10 18 -17 15 -13 16 -12 3 4 -13 16 -21 21 -21
13z"/>
<path d="M4539 1173 c-12 -16 -12 -17 2 -6 9 7 20 9 24 5 5 -4 5 -1 1 6 -9 16
-11 15 -27 -5z"/>
<path d="M2855 1160 c3 -5 8 -10 11 -10 2 0 4 5 4 10 0 6 -5 10 -11 10 -5 0
-7 -4 -4 -10z"/>
<path d="M2940 1166 c0 -2 8 -10 18 -17 15 -13 16 -12 3 4 -13 16 -21 21 -21
13z"/>
<path d="M3074 1153 c21 -25 36 -30 36 -11 0 6 -3 8 -7 5 -3 -4 -16 1 -27 10
-21 18 -21 18 -2 -4z"/>
<path d="M4463 1144 c9 -11 15 -23 12 -26 -3 -2 2 -5 10 -5 10 0 12 4 5 12 -5
7 -6 16 -2 21 4 5 3 6 -2 2 -5 -4 -16 -2 -25 4 -12 10 -12 7 2 -8z"/>
<path d="M2907 1139 c7 -7 15 -10 18 -7 3 3 -2 9 -12 12 -14 6 -15 5 -6 -5z"/>
<path d="M3000 1146 c0 -2 8 -10 18 -17 15 -13 16 -12 3 4 -13 16 -21 21 -21
13z"/>
<path d="M3132 1141 c-11 -7 -11 -9 0 -14 9 -3 15 1 15 9 0 8 -1 14 -1 14 -1
0 -7 -4 -14 -9z"/>
<path d="M3195 1140 c-3 -5 -1 -10 4 -10 6 0 11 5 11 10 0 6 -2 10 -4 10 -3 0
-8 -4 -11 -10z"/>
<path d="M3245 1140 c-3 -5 -1 -10 4 -10 6 0 11 5 11 10 0 6 -2 10 -4 10 -3 0
-8 -4 -11 -10z"/>
<path d="M4434 1133 c2 -9 8 -18 15 -19 6 -1 7 0 1 3 -5 2 -8 9 -5 13 3 5 1
11 -4 14 -5 4 -8 -2 -7 -11z"/>
<path d="M4509 1137 c6 -8 9 -16 6 -19 -3 -2 2 -5 10 -5 13 0 13 3 -2 19 -19
21 -31 25 -14 5z"/>
<path d="M4634 1128 l-19 -23 23 19 c21 18 27 26 19 26 -2 0 -12 -10 -23 -22z"/>
<path d="M3275 1129 c-4 -6 -5 -12 -2 -15 2 -3 7 2 10 11 7 17 1 20 -8 4z"/>
<path d="M4347 1126 c-4 -10 -1 -13 8 -9 8 3 12 9 9 14 -7 12 -11 11 -17 -5z"/>
<path d="M4593 1125 c0 -8 4 -12 9 -9 5 3 6 10 3 15 -9 13 -12 11 -12 -6z"/>
<path d="M2953 1113 c0 -9 4 -10 14 -2 7 6 13 12 13 14 0 1 -6 2 -13 2 -8 0
-14 -6 -14 -14z"/>
<path d="M3004 1102 c23 -26 23 -26 23 -7 0 8 -3 13 -5 10 -3 -3 -12 1 -21 7
-10 8 -9 4 3 -10z"/>
<path d="M4669 1103 c-13 -16 -12 -17 4 -4 16 13 21 21 13 21 -2 0 -10 -8 -17
-17z"/>
<path d="M3153 1092 c0 -12 5 -22 9 -22 11 0 10 12 -2 30 -7 12 -9 10 -7 -8z"/>
<path d="M3256 1097 c3 -10 9 -15 12 -12 3 3 0 11 -7 18 -10 9 -11 8 -5 -6z"/>
<path d="M4370 1098 c0 -11 12 -10 30 2 12 7 10 9 -8 7 -12 0 -22 -5 -22 -9z"/>
<path d="M4427 1099 c7 -7 15 -10 18 -7 3 3 -2 9 -12 12 -14 6 -15 5 -6 -5z"/>
<path d="M4787 1099 c7 -7 15 -10 18 -7 3 3 -2 9 -12 12 -14 6 -15 5 -6 -5z"/>
<path d="M3070 1096 c0 -2 8 -10 18 -17 15 -13 16 -12 3 4 -13 16 -21 21 -21
13z"/>
<path d="M2816 1082 c-3 -5 1 -9 9 -9 8 0 12 4 9 9 -3 4 -7 8 -9 8 -2 0 -6 -4
-9 -8z"/>
<path d="M2855 1080 c3 -5 8 -10 11 -10 2 0 4 5 4 10 0 6 -5 10 -11 10 -5 0
-7 -4 -4 -10z"/>
<path d="M3210 1080 c-9 -6 -10 -10 -3 -10 6 0 15 5 18 10 8 12 4 12 -15 0z"/>
<path d="M4399 1068 c-6 -13 -8 -20 -4 -16 5 4 13 3 20 -2 8 -7 12 -5 12 5 0
8 -5 11 -10 8 -6 -4 -8 0 -4 10 9 25 0 21 -14 -5z"/>
<path d="M4593 1070 c-1 -11 2 -20 7 -20 4 0 7 7 6 15 -3 23 -12 26 -13 5z"/>
<path d="M4620 1085 c0 -2 6 -8 13 -14 10 -8 14 -7 14 2 0 8 -6 14 -14 14 -7
0 -13 -1 -13 -2z"/>
<path d="M3054 1059 c0 -13 3 -15 13 -7 7 6 13 12 13 13 0 2 -6 5 -13 8 -7 3
-13 -3 -13 -14z"/>
<path d="M4350 1069 c0 -5 5 -7 10 -4 6 3 10 8 10 11 0 2 -4 4 -10 4 -5 0 -10
-5 -10 -11z"/>
<path d="M4526 1065 c-11 -8 -15 -15 -9 -15 6 0 16 7 23 15 16 19 11 19 -14 0z"/>
<path d="M2991 1067 c2 -2 11 -8 20 -15 12 -9 16 -9 16 1 0 7 -9 14 -20 14
-11 1 -18 1 -16 0z"/>
<path d="M3110 1060 c0 -4 7 -13 15 -20 13 -11 14 -10 9 5 -6 14 -4 16 7 10 8
-5 11 -4 6 0 -10 12 -37 15 -37 5z"/>
<path d="M3230 1058 c0 -4 4 -8 9 -8 6 0 12 4 15 8 3 5 -1 9 -9 9 -8 0 -15 -4
-15 -9z"/>
<path d="M4750 1060 c0 -5 5 -10 11 -10 5 0 7 5 4 10 -3 6 -8 10 -11 10 -2 0
-4 -4 -4 -10z"/>
<path d="M4840 1060 c-8 -5 -10 -10 -5 -10 6 0 17 5 25 10 8 5 11 10 5 10 -5
0 -17 -5 -25 -10z"/>
<path d="M3187 1046 c-4 -10 1 -12 14 -9 23 6 24 9 5 16 -8 3 -17 0 -19 -7z"/>
<path d="M4470 1056 c0 -2 8 -10 18 -17 15 -13 16 -12 3 4 -13 16 -21 21 -21
13z"/>
<path d="M2989 1038 c11 -15 11 -21 0 -35 -12 -17 -12 -17 6 0 19 17 19 17 0
35 -18 16 -18 16 -6 0z"/>
<path d="M4296 1043 c-10 -10 -7 -33 4 -33 5 0 6 8 3 18 -6 15 -5 15 10 3 10
-8 19 -12 22 -10 2 3 -4 10 -14 16 -11 7 -22 9 -25 6z"/>
<path d="M4546 1042 c-3 -5 1 -9 9 -9 8 0 15 4 15 9 0 4 -4 8 -9 8 -6 0 -12
-4 -15 -8z"/>
<path d="M3074 1029 c-3 -6 -2 -15 3 -20 5 -5 9 -1 9 11 0 23 -2 24 -12 9z"/>
<path d="M4451 1024 c0 -11 3 -14 6 -6 3 7 2 16 -1 19 -3 4 -6 -2 -5 -13z"/>
<path d="M4360 1015 c-11 -13 -10 -14 5 -9 14 6 16 4 10 -6 -5 -8 -4 -11 3 -6
6 4 9 13 5 21 -7 19 -8 19 -23 0z"/>
<path d="M4474 1016 c1 -8 5 -18 8 -22 4 -3 5 1 4 10 -1 8 -5 18 -8 22 -4 3
-5 -1 -4 -10z"/>
<path d="M4715 1021 c-3 -5 -2 -12 3 -15 5 -3 9 1 9 9 0 17 -3 19 -12 6z"/>
<path d="M4819 1028 c-5 -18 -6 -38 -1 -34 7 8 12 36 6 36 -2 0 -4 -1 -5 -2z"/>
<path d="M2959 1015 c-1 -3 -2 -8 -3 -12 -1 -5 -5 -15 -10 -23 -7 -12 -6 -13
4 -3 13 12 23 43 14 43 -2 0 -5 -2 -5 -5z"/>
<path d="M4254 1009 c1 -7 13 -14 27 -16 18 -2 20 -1 9 6 -8 5 -17 8 -21 5 -4
-2 -10 1 -12 6 -3 6 -4 5 -3 -1z"/>
<path d="M4509 1003 c-13 -16 -12 -17 4 -4 9 7 17 15 17 17 0 8 -8 3 -21 -13z"/>
<path d="M2806 1002 c-3 -5 1 -9 9 -9 8 0 12 4 9 9 -3 4 -7 8 -9 8 -2 0 -6 -4
-9 -8z"/>
<path d="M3122 998 c-7 -7 -12 -15 -12 -19 0 -9 27 -5 37 6 5 4 2 5 -6 0 -11
-6 -13 -4 -8 8 8 20 5 21 -11 5z"/>
<path d="M4141 992 c6 -10 21 -18 33 -19 21 -1 21 -1 -1 9 -13 6 -23 15 -23
20 0 4 -5 8 -10 8 -6 0 -6 -7 1 -18z"/>
<path d="M4184 995 c11 -8 24 -15 30 -15 5 0 1 7 -10 15 -10 8 -23 14 -29 14
-5 0 -1 -6 9 -14z"/>
<path d="M4233 993 c0 -12 4 -20 8 -17 4 2 10 -3 13 -12 3 -8 11 -12 17 -8 8
4 9 -1 5 -17 -6 -21 -6 -22 5 -6 8 14 8 22 0 30 -6 6 -11 7 -11 1 0 -5 -9 4
-20 21 -16 25 -19 26 -17 8z"/>
<path d="M3054 979 c0 -13 3 -15 13 -7 7 6 13 12 13 13 0 2 -6 5 -13 8 -7 3
-13 -3 -13 -14z"/>
<path d="M4416 986 c3 -7 11 -13 19 -13 22 0 18 14 -4 20 -13 3 -18 0 -15 -7z"/>
<path d="M4524 978 c-12 -14 -13 -18 -3 -10 9 6 18 10 21 7 2 -3 5 2 5 10 0
19 0 19 -23 -7z"/>
<path d="M4570 996 c0 -2 8 -10 18 -17 15 -13 16 -12 3 4 -13 16 -21 21 -21
13z"/>
<path d="M4300 980 c-9 -6 -10 -10 -3 -10 6 0 15 5 18 10 8 12 4 12 -15 0z"/>
<path d="M4331 987 c2 -1 13 -9 24 -17 19 -14 19 -14 6 3 -7 9 -18 17 -24 17
-6 0 -8 -1 -6 -3z"/>
<path d="M2990 976 c0 -2 8 -10 18 -17 15 -13 16 -12 3 4 -13 16 -21 21 -21
13z"/>
<path d="M2875 961 c-3 -5 -2 -12 3 -15 5 -3 9 1 9 9 0 17 -3 19 -12 6z"/>
<path d="M3080 955 c-7 -8 -9 -15 -5 -15 4 0 1 -8 -6 -17 -13 -16 -12 -17 4
-4 9 8 15 16 12 19 -3 3 0 11 6 19 6 7 9 13 6 13 -2 0 -10 -7 -17 -15z"/>
<path d="M4198 958 c-15 -12 -15 -15 -3 -32 8 -11 15 -15 15 -10 0 6 -5 15
-11 21 -7 7 -6 12 5 16 10 4 16 1 16 -8 0 -18 16 -20 26 -2 4 6 4 9 -1 5 -4
-4 -13 -1 -19 7 -9 13 -14 13 -28 3z"/>
<path d="M4320 950 c-7 -14 -7 -20 0 -20 5 0 10 7 10 16 0 9 5 12 12 8 7 -4 8
-3 4 4 -10 16 -14 15 -26 -8z"/>
<path d="M4480 960 c-9 -6 -10 -10 -3 -10 6 0 15 5 18 10 8 12 4 12 -15 0z"/>
<path d="M4835 960 c3 -5 8 -10 11 -10 2 0 4 5 4 10 0 6 -5 10 -11 10 -5 0 -7
-4 -4 -10z"/>
<path d="M3990 948 c0 -18 96 -82 109 -73 6 3 9 10 6 15 -2 4 5 21 16 36 l21
29 -26 -28 c-15 -16 -24 -33 -21 -38 18 -28 -44 8 -82 48 -14 14 -23 19 -23
11z"/>
<path d="M4150 950 c0 -5 5 -10 10 -10 6 0 10 5 10 10 0 6 -4 10 -10 10 -5 0
-10 -4 -10 -10z"/>
<path d="M4381 952 c-1 -7 -6 -10 -13 -6 -7 4 -8 3 -4 -5 4 -6 12 -8 18 -5 7
5 9 2 6 -8 -4 -8 -1 -15 7 -15 8 0 11 7 7 15 -4 11 -1 13 8 7 9 -5 11 -4 6 4
-4 6 -11 9 -16 6 -4 -3 -11 1 -13 7 -4 10 -6 10 -6 0z"/>
<path d="M2970 938 c0 -6 3 -8 7 -5 3 4 13 1 22 -6 14 -11 14 -10 2 6 -15 20
-31 22 -31 5z"/>
<path d="M3037 932 c-15 -16 -15 -19 -2 -19 8 0 13 3 10 5 -3 3 0 11 6 19 17
20 5 16 -14 -5z"/>
<path d="M3101 934 c0 -11 3 -14 6 -6 3 7 2 16 -1 19 -3 4 -6 -2 -5 -13z"/>
<path d="M3139 933 c-13 -17 -13 -17 5 -3 18 13 19 13 14 -1 -4 -9 -1 -16 7
-16 7 0 10 8 7 19 -6 23 -16 23 -33 1z"/>
<path d="M3298 938 c-9 -5 -6 -7 9 -5 12 2 25 6 28 8 8 9 -23 6 -37 -3z"/>
<path d="M3382 930 c13 -20 28 -27 28 -12 0 4 -9 13 -20 20 -19 12 -20 11 -8
-8z"/>
<path d="M3827 937 c3 -4 14 -7 25 -5 12 2 23 -2 25 -8 2 -7 -6 -10 -22 -9
-14 2 -25 -1 -25 -7 0 -5 9 -6 20 -3 19 6 26 -7 21 -37 0 -4 6 -5 15 -1 9 3
14 0 12 -8 -2 -7 5 -15 15 -17 9 -2 17 1 17 7 0 6 -7 8 -15 4 -9 -3 -15 -2
-14 3 4 21 -2 35 -11 29 -5 -3 -10 1 -10 10 0 9 4 14 8 11 5 -3 8 5 7 17 -1
17 -8 21 -37 22 -20 0 -34 -4 -31 -8z"/>
<path d="M3950 940 c18 -12 30 -13 30 -2 0 4 -10 9 -22 9 -18 2 -20 0 -8 -7z"/>
<path d="M4610 941 c0 -6 4 -13 10 -16 6 -3 7 1 4 9 -7 18 -14 21 -14 7z"/>
<path d="M3520 921 c10 -18 9 -25 -1 -32 -7 -4 -10 -11 -6 -16 5 -4 12 -1 17
7 13 20 12 23 -6 46 -14 18 -15 18 -4 -5z"/>
<path d="M3547 922 c4 -10 9 -10 22 0 9 7 17 13 19 14 2 1 -8 1 -21 0 -15 0
-23 -6 -20 -14z"/>
<path d="M4470 936 c0 -2 9 -6 20 -9 11 -3 18 -1 14 4 -5 9 -34 13 -34 5z"/>
<path d="M4795 930 c-4 -6 -11 -7 -17 -4 -7 4 -8 2 -4 -5 6 -9 11 -9 22 0 14
11 18 19 10 19 -3 0 -8 -5 -11 -10z"/>
<path d="M3339 928 c-6 -21 -5 -37 2 -32 5 3 7 9 4 14 -3 5 3 11 12 13 17 4
17 5 1 6 -10 0 -18 0 -19 -1z"/>
<path d="M3450 920 c0 -5 -6 -10 -14 -10 -17 0 -29 -27 -15 -36 6 -3 13 -3 16
0 4 3 1 6 -6 6 -7 0 -9 5 -6 10 4 6 10 8 14 6 4 -3 12 4 19 15 7 11 8 19 2 19
-5 0 -10 -4 -10 -10z"/>
<path d="M3937 916 c-4 -10 -1 -13 8 -9 8 3 12 9 9 14 -7 12 -11 11 -17 -5z"/>
<path d="M4130 909 c-12 -21 10 -42 37 -37 28 5 24 51 -5 53 -13 1 -27 -6 -32
-16z m47 -11 c-1 -17 -27 -25 -40 -12 -11 11 3 30 22 30 13 0 19 -7 18 -18z"/>
<path d="M4540 926 c0 -2 8 -10 18 -17 15 -13 16 -12 3 4 -13 16 -21 21 -21
13z"/>
<path d="M3496 908 c5 -8 2 -9 -10 -5 -9 4 -15 3 -12 -2 3 -5 -1 -12 -9 -15
-14 -5 -14 -8 1 -31 9 -14 20 -22 25 -19 5 3 9 -4 9 -14 0 -15 -5 -19 -19 -15
-10 3 -21 1 -24 -4 -3 -5 7 -8 21 -7 22 1 27 6 27 25 0 13 -5 23 -11 22 -5 -1
-15 7 -22 18 -14 21 -3 25 18 7 12 -11 12 -10 2 3 -10 14 -10 18 3 23 17 6 21
26 4 26 -5 0 -7 -5 -3 -12z"/>
<path d="M3985 904 c9 -9 19 -13 23 -10 3 4 0 11 -8 16 -24 15 -33 11 -15 -6z"/>
<path d="M4450 911 c0 -7 -5 -9 -12 -5 -7 5 -8 3 -3 -5 5 -9 10 -10 18 -2 6 6
8 14 4 18 -4 3 -7 1 -7 -6z"/>
<path d="M3080 905 c0 -2 6 -8 13 -14 10 -8 14 -7 14 2 0 8 -6 14 -14 14 -7 0
-13 -1 -13 -2z"/>
<path d="M3240 895 c-19 -22 -8 -25 13 -3 9 10 13 18 8 18 -5 0 -14 -7 -21
-15z"/>
<path d="M3640 896 c0 -8 -6 -17 -12 -19 -10 -4 -10 -6 0 -6 7 -1 10 -5 7 -11
-3 -5 -2 -10 3 -10 5 0 9 14 10 30 0 17 -1 30 -4 30 -2 0 -4 -6 -4 -14z"/>
<path d="M4220 906 c0 -2 7 -6 15 -10 8 -3 15 -1 15 4 0 6 -7 10 -15 10 -8 0
-15 -2 -15 -4z"/>
<path d="M4517 895 c-4 -8 -3 -16 1 -19 4 -3 9 4 9 15 2 23 -3 25 -10 4z"/>
<path d="M4596 898 c3 -5 10 -6 15 -3 13 9 11 12 -6 12 -8 0 -12 -4 -9 -9z"/>
<path d="M3275 890 c-3 -6 1 -7 9 -4 18 7 21 14 7 14 -6 0 -13 -4 -16 -10z"/>
<path d="M3910 891 c0 -5 7 -11 15 -15 8 -3 15 -1 15 3 0 5 -7 11 -15 15 -8 3
-15 1 -15 -3z"/>
<path d="M3964 884 c9 -8 16 -22 16 -29 0 -8 4 -16 9 -19 11 -7 2 34 -12 52
-5 6 -14 12 -19 12 -5 0 -2 -7 6 -16z"/>
<path d="M2895 880 c-3 -5 -1 -10 4 -10 6 0 11 5 11 10 0 6 -2 10 -4 10 -3 0
-8 -4 -11 -10z"/>
<path d="M3060 886 c0 -2 8 -10 18 -17 15 -13 16 -12 3 4 -13 16 -21 21 -21
13z"/>
<path d="M3558 883 c7 -3 16 -2 19 1 4 3 -2 6 -13 5 -11 0 -14 -3 -6 -6z"/>
<path d="M3660 880 c0 -5 5 -10 11 -10 5 0 7 5 4 10 -3 6 -8 10 -11 10 -2 0
-4 -4 -4 -10z"/>
<path d="M3825 872 c-3 -8 -3 -17 0 -20 3 -3 5 0 5 6 0 7 7 12 15 12 8 0 15 4
15 8 0 15 -29 9 -35 -6z"/>
<path d="M4012 878 c-7 -7 -12 -16 -12 -21 0 -5 7 -1 16 8 9 9 14 18 12 20 -2
3 -10 -1 -16 -7z"/>
<path d="M4310 880 c0 -5 5 -10 10 -10 6 0 10 5 10 10 0 6 -4 10 -10 10 -5 0
-10 -4 -10 -10z"/>
<path d="M4466 882 c-2 -4 4 -8 14 -8 10 0 16 4 14 8 -3 4 -9 8 -14 8 -5 0
-11 -4 -14 -8z"/>
<path d="M4546 882 c-3 -5 1 -9 9 -9 8 0 12 4 9 9 -3 4 -7 8 -9 8 -2 0 -6 -4
-9 -8z"/>
<path d="M4587 879 c7 -7 15 -10 18 -7 3 3 -2 9 -12 12 -14 6 -15 5 -6 -5z"/>
<path d="M3330 865 c0 -8 4 -15 10 -15 5 0 7 7 4 15 -4 8 -8 15 -10 15 -2 0
-4 -7 -4 -15z"/>
<path d="M3696 865 c4 -8 8 -15 10 -15 2 0 4 7 4 15 0 8 -4 15 -10 15 -5 0 -7
-7 -4 -15z"/>
<path d="M3946 863 c-6 -14 -5 -15 5 -6 7 7 10 15 7 18 -3 3 -9 -2 -12 -12z"/>
<path d="M4032 864 c-7 -8 -8 -14 -3 -14 10 0 25 19 20 25 -2 1 -10 -3 -17
-11z"/>
<path d="M4266 863 c-6 -14 -5 -15 5 -6 7 7 10 15 7 18 -3 3 -9 -2 -12 -12z"/>
<path d="M2996 853 c-6 -14 -5 -15 5 -6 7 7 10 15 7 18 -3 3 -9 -2 -12 -12z"/>
<path d="M3174 862 c4 -3 14 -7 22 -8 9 -1 13 0 10 4 -4 3 -14 7 -22 8 -9 1
-13 0 -10 -4z"/>
<path d="M3273 849 c-2 -23 3 -25 10 -4 4 8 3 16 -1 19 -4 3 -9 -4 -9 -15z"/>
<path d="M3370 860 c0 -5 5 -10 10 -10 6 0 10 5 10 10 0 6 -4 10 -10 10 -5 0
-10 -4 -10 -10z"/>
<path d="M3540 860 c0 -5 5 -10 10 -10 6 0 10 5 10 10 0 6 -4 10 -10 10 -5 0
-10 -4 -10 -10z"/>
<path d="M3720 858 c0 -11 12 -10 30 2 12 7 10 9 -8 7 -12 0 -22 -5 -22 -9z"/>
<path d="M4056 855 c-3 -9 1 -18 9 -21 8 -4 12 -11 8 -17 -3 -6 -1 -7 5 -3 17
10 15 26 -3 26 -9 0 -12 6 -9 15 4 8 4 15 1 15 -3 0 -8 -7 -11 -15z"/>
<path d="M4100 860 c-12 -7 -10 -9 8 -7 12 0 22 5 22 9 0 11 -12 10 -30 -2z"/>
<path d="M4195 862 c3 -3 -3 -11 -13 -19 -15 -13 -15 -13 5 -3 28 13 37 27 18
27 -8 0 -13 -3 -10 -5z"/>
<path d="M4237 853 c4 -10 2 -14 -5 -9 -6 3 -14 1 -18 -5 -4 -7 -3 -9 4 -5 5
3 13 0 15 -6 4 -10 6 -10 6 0 1 7 6 10 12 6 8 -4 8 0 0 15 -14 25 -23 28 -14
4z"/>
<path d="M4404 863 c4 -4 16 -8 28 -10 28 -4 18 6 -12 12 -12 2 -20 1 -16 -2z"/>
<path d="M4756 858 c3 -5 10 -6 15 -3 13 9 11 12 -6 12 -8 0 -12 -4 -9 -9z"/>
<path d="M4867 859 c7 -7 15 -10 18 -7 3 3 -2 9 -12 12 -14 6 -15 5 -6 -5z"/>
<path d="M3153 845 c0 -8 10 -23 21 -32 21 -18 21 -18 4 2 -9 11 -17 24 -16
28 0 5 -2 11 -4 13 -3 2 -5 -3 -5 -11z"/>
<path d="M3424 845 c-18 -14 -18 -14 4 -8 12 3 22 9 22 14 0 12 -3 11 -26 -6z"/>
<path d="M3516 847 c3 -10 9 -15 12 -12 3 3 0 11 -7 18 -10 9 -11 8 -5 -6z"/>
<path d="M3660 845 c-9 -10 -9 -15 -1 -15 6 0 11 5 11 11 0 5 5 7 10 4 6 -3
10 -1 10 4 0 16 -16 13 -30 -4z"/>
<path d="M3795 850 c-3 -5 -1 -10 4 -10 6 0 11 5 11 10 0 6 -2 10 -4 10 -3 0
-8 -4 -11 -10z"/>
<path d="M4151 851 c-8 -5 -16 -17 -17 -26 -1 -9 1 -14 4 -10 4 4 6 9 4 12 -2
3 5 11 15 19 20 15 16 19 -6 5z"/>
<path d="M3316 838 c5 -8 1 -9 -12 -4 -14 5 -16 4 -7 -4 7 -8 17 -9 28 -3 16
9 16 10 1 16 -12 5 -15 3 -10 -5z"/>
<path d="M3570 838 c0 -6 -3 -8 -7 -5 -8 9 -33 -12 -33 -27 0 -6 5 -3 11 7 6
9 14 15 18 12 5 -2 14 2 21 10 9 10 9 15 1 15 -6 0 -11 -5 -11 -12z"/>
<path d="M3856 843 c-4 -4 -15 -8 -23 -8 -9 0 -18 -6 -20 -12 -3 -7 0 -13 7
-13 6 0 8 5 4 11 -4 7 -1 10 7 7 8 -3 23 -1 33 5 15 7 18 6 13 -5 -3 -8 -1
-21 4 -29 5 -9 7 -5 6 15 -2 30 -17 43 -31 29z"/>
<path d="M3938 829 c-18 -13 -28 -16 -28 -8 0 7 -3 10 -6 6 -3 -3 -3 -11 1
-16 4 -8 13 -7 27 3 11 8 25 13 32 12 6 -2 8 -1 3 1 -4 3 -5 9 -1 14 8 13 2
11 -28 -12z"/>
<path d="M4695 840 c3 -5 8 -10 11 -10 2 0 4 5 4 10 0 6 -5 10 -11 10 -5 0 -7
-4 -4 -10z"/>
<path d="M4739 848 c-5 -18 -6 -38 -1 -34 7 8 12 36 6 36 -2 0 -4 -1 -5 -2z"/>
<path d="M3055 829 c-4 -6 -5 -12 -2 -15 2 -3 7 2 10 11 7 17 1 20 -8 4z"/>
<path d="M3393 821 c0 -11 5 -18 9 -15 4 3 5 11 1 19 -7 21 -12 19 -10 -4z"/>
<path d="M3708 833 c7 -3 16 -2 19 1 4 3 -2 6 -13 5 -11 0 -14 -3 -6 -6z"/>
<path d="M4014 815 c1 -11 7 -19 15 -17 9 2 11 -3 7 -15 -6 -14 -4 -15 5 -6
12 12 3 37 -11 28 -5 -3 -10 3 -13 12 -3 14 -4 13 -3 -2z"/>
<path d="M4030 836 c0 -2 8 -10 18 -17 15 -13 16 -12 3 4 -13 16 -21 21 -21
13z"/>
<path d="M4334 819 c0 -11 4 -15 11 -9 14 12 39 8 61 -10 18 -14 18 -13 0 8
-11 12 -21 20 -24 18 -2 -3 -14 -1 -26 4 -17 6 -22 4 -22 -11z"/>
<path d="M3075 821 c-3 -5 -2 -12 3 -15 5 -3 9 1 9 9 0 17 -3 19 -12 6z"/>
<path d="M3130 821 c0 -6 4 -13 10 -16 6 -3 7 1 4 9 -7 18 -14 21 -14 7z"/>
<path d="M3436 818 c3 -4 11 -5 19 -1 21 7 19 12 -4 10 -11 0 -18 -5 -15 -9z"/>
<path d="M3594 819 c2 -15 20 -13 24 3 3 10 2 10 -6 -1 -7 -9 -11 -10 -15 -2
-4 7 -5 8 -3 0z"/>
<path d="M3670 820 c-11 -7 -11 -10 -2 -10 7 0 10 -4 7 -10 -3 -5 0 -7 9 -4
11 4 14 0 11 -15 -2 -11 1 -24 7 -27 6 -4 8 -3 5 3 -4 6 0 14 9 17 22 8 24 8
22 -6 -4 -19 45 -16 49 2 3 9 1 11 -4 5 -13 -15 -44 -18 -41 -3 2 8 -6 12 -20
11 -13 -2 -21 1 -17 7 3 6 -1 13 -9 16 -9 3 -13 10 -10 15 7 11 3 11 -16 -1z"/>
<path d="M4270 819 c0 -5 5 -7 10 -4 6 3 10 8 10 11 0 2 -4 4 -10 4 -5 0 -10
-5 -10 -11z"/>
<path d="M4519 828 c-6 -20 -6 -39 0 -42 4 -3 7 6 7 20 0 20 -4 32 -7 22z"/>
<path d="M3350 810 c-8 -5 -10 -10 -5 -10 6 0 17 5 25 10 8 5 11 10 5 10 -5 0
-17 -5 -25 -10z"/>
<path d="M4157 813 c-10 -10 -8 -23 4 -23 5 0 7 5 3 12 -5 8 -2 9 10 5 10 -4
15 -3 11 3 -7 12 -19 13 -28 3z"/>
<path d="M4434 796 c1 -14 4 -28 7 -31 3 -3 5 6 5 19 -1 14 -4 28 -7 31 -3 3
-5 -6 -5 -19z"/>
<path d="M3415 799 c-4 -6 -5 -12 -2 -15 2 -3 7 2 10 11 7 17 1 20 -8 4z"/>
<path d="M3550 800 c0 -5 6 -7 14 -4 11 4 13 -1 10 -18 -4 -21 -3 -21 5 -3 4
11 7 23 4 28 -6 10 -33 9 -33 -3z"/>
<path d="M3630 799 c0 -5 4 -8 9 -5 5 3 12 -1 15 -10 9 -22 8 -26 -6 -18 -7 5
-8 3 -3 -5 13 -22 28 4 16 28 -12 22 -31 28 -31 10z"/>
<path d="M3832 794 c-16 -11 -22 -12 -22 -3 0 7 -3 10 -6 6 -3 -3 -1 -14 5
-24 6 -10 11 -13 11 -6 0 7 9 17 19 23 17 8 20 7 18 -10 -1 -12 -7 -18 -14
-16 -7 3 -13 1 -13 -5 0 -20 33 -4 36 18 5 29 -8 36 -34 17z"/>
<path d="M3937 804 c-8 -9 3 -34 15 -34 6 0 5 7 -3 16 -11 14 -10 15 7 12 19
-3 34 -16 34 -31 0 -5 -5 -5 -12 -1 -7 4 -8 3 -4 -4 10 -16 14 -15 27 9 6 13
7 19 1 15 -6 -3 -12 -1 -14 6 -4 12 -42 21 -51 12z"/>
<path d="M4196 793 c-6 -14 -5 -15 5 -6 7 7 10 15 7 18 -3 3 -9 -2 -12 -12z"/>
<path d="M4467 799 c7 -7 15 -10 18 -7 3 3 -2 9 -12 12 -14 6 -15 5 -6 -5z"/>
<path d="M4655 800 c3 -5 8 -10 11 -10 2 0 4 5 4 10 0 6 -5 10 -11 10 -5 0 -7
-4 -4 -10z"/>
<path d="M3235 769 c-1 -31 7 -30 12 1 1 10 -1 21 -5 24 -4 2 -7 -9 -7 -25z"/>
<path d="M4123 780 c-11 -16 -10 -18 2 -14 8 4 15 12 15 20 0 19 -3 18 -17 -6z"/>
<path d="M3126 779 c4 -8 30 -6 38 2 3 3 -5 5 -19 5 -13 0 -22 -3 -19 -7z"/>
<path d="M3335 780 c3 -5 8 -10 11 -10 2 0 4 5 4 10 0 6 -5 10 -11 10 -5 0 -7
-4 -4 -10z"/>
<path d="M3442 777 c10 -8 14 -18 10 -22 -4 -5 -1 -5 6 -1 17 10 15 14 -10 26
-21 10 -21 10 -6 -3z"/>
<path d="M3605 780 c3 -5 11 -10 16 -10 6 0 7 5 4 10 -3 6 -11 10 -16 10 -6 0
-7 -4 -4 -10z"/>
<path d="M3890 780 c-8 -5 -10 -10 -5 -10 6 0 17 5 25 10 8 5 11 10 5 10 -5 0
-17 -5 -25 -10z"/>
<path d="M4065 777 c-15 -12 -16 -15 -4 -22 8 -5 10 -4 6 0 -4 5 3 15 15 22
13 7 18 12 12 13 -5 0 -18 -6 -29 -13z"/>
<path d="M4230 770 c-6 -12 -5 -17 5 -17 8 0 11 7 7 16 -5 13 -3 14 9 4 13
-10 16 -10 16 0 0 19 -26 17 -37 -3z"/>
<path d="M4550 781 c0 -6 4 -13 10 -16 6 -3 7 1 4 9 -7 18 -14 21 -14 7z"/>
<path d="M4159 778 c-5 -19 -8 -50 -4 -46 7 7 15 48 9 48 -2 0 -4 -1 -5 -2z"/>
<path d="M3055 760 c-3 -5 -1 -10 4 -10 6 0 11 5 11 10 0 6 -2 10 -4 10 -3 0
-8 -4 -11 -10z"/>
<path d="M3161 756 c-9 -11 -9 -16 1 -22 7 -4 10 -4 6 1 -4 4 -3 14 3 22 6 7
9 13 6 13 -2 0 -10 -6 -16 -14z"/>
<path d="M3510 761 c0 -6 4 -13 10 -16 6 -3 7 1 4 9 -7 18 -14 21 -14 7z"/>
<path d="M3536 757 c3 -10 9 -15 12 -12 3 3 0 11 -7 18 -10 9 -11 8 -5 -6z"/>
<path d="M3590 760 c0 -6 7 -10 15 -10 8 0 15 2 15 4 0 2 -7 6 -15 10 -8 3
-15 1 -15 -4z"/>
<path d="M3913 755 c0 -8 4 -12 9 -9 4 3 8 9 8 15 0 5 -4 9 -8 9 -5 0 -9 -7
-9 -15z"/>
<path d="M4014 762 c3 -5 0 -13 -6 -15 -9 -4 -10 -6 -1 -6 17 -1 25 16 12 25
-7 4 -9 3 -5 -4z"/>
<path d="M4393 755 c0 -8 4 -12 9 -9 5 3 6 10 3 15 -9 13 -12 11 -12 -6z"/>
<path d="M4710 761 c0 -6 4 -13 10 -16 6 -3 7 1 4 9 -7 18 -14 21 -14 7z"/>
<path d="M3194 735 c0 -13 3 -22 7 -19 8 4 6 30 -2 38 -3 3 -5 -5 -5 -19z"/>
<path d="M3340 749 c0 -5 -4 -7 -10 -4 -14 9 -12 -1 3 -13 10 -8 13 -6 14 9 1
10 0 19 -3 19 -2 0 -4 -5 -4 -11z"/>
<path d="M4290 756 c0 -2 8 -10 18 -17 15 -13 16 -12 3 4 -13 16 -21 21 -21
13z"/>
<path d="M3396 741 c9 -9 34 -9 34 -1 0 5 -9 8 -20 7 -10 -1 -17 -3 -14 -6z"/>
<path d="M3473 743 c4 -3 3 -11 -3 -17 -6 -8 -3 -12 9 -12 12 0 17 6 13 18 -2
10 -9 18 -15 18 -6 0 -7 -3 -4 -7z"/>
<path d="M3564 739 c-3 -6 -1 -16 5 -22 9 -9 10 -7 5 7 -6 15 -4 17 6 11 9 -5
11 -4 6 3 -9 15 -13 15 -22 1z"/>
<path d="M3634 736 c1 -8 5 -18 8 -22 4 -3 5 1 4 10 -1 8 -5 18 -8 22 -4 3 -5
-1 -4 -10z"/>
<path d="M3665 739 c-11 -16 -1 -19 13 -3 7 8 8 14 3 14 -5 0 -13 -5 -16 -11z"/>
<path d="M3712 741 c-11 -6 -10 -10 4 -15 9 -3 19 -4 22 -1 3 3 0 5 -7 5 -7 0
-9 5 -6 10 7 12 4 12 -13 1z"/>
<path d="M3810 740 c0 -5 5 -10 11 -10 5 0 7 5 4 10 -3 6 -8 10 -11 10 -2 0
-4 -4 -4 -10z"/>
<path d="M3875 740 c3 -6 1 -10 -6 -10 -7 0 -10 -3 -6 -6 3 -3 13 -2 22 4 16
8 16 9 1 15 -10 4 -15 3 -11 -3z"/>
<path d="M3952 741 c-11 -6 -10 -10 4 -15 9 -3 19 -4 22 -1 3 3 0 5 -7 5 -7 0
-9 5 -6 10 7 12 4 12 -13 1z"/>
<path d="M4085 740 c-3 -6 1 -7 9 -4 18 7 21 14 7 14 -6 0 -13 -4 -16 -10z"/>
<path d="M4175 739 c-4 -6 -4 -13 -1 -16 3 -4 6 -1 6 6 0 7 5 9 12 5 7 -4 8
-3 4 4 -9 15 -13 15 -21 1z"/>
<path d="M4259 733 c-13 -16 -12 -17 4 -4 16 13 21 21 13 21 -2 0 -10 -8 -17
-17z"/>
<path d="M4350 738 c0 -6 3 -8 7 -5 3 4 13 1 22 -6 14 -11 14 -10 2 6 -15 20
-31 22 -31 5z"/>
<path d="M3300 726 c0 -2 8 -10 18 -17 15 -13 16 -12 3 4 -13 16 -21 21 -21
13z"/>
<path d="M3830 720 c-9 -6 -10 -10 -3 -10 6 0 15 5 18 10 8 12 4 12 -15 0z"/>
<path d="M4108 712 c3 -9 1 -13 -5 -9 -5 3 -10 0 -10 -8 0 -17 14 -10 26 14 7
13 6 18 -4 18 -7 0 -11 -7 -7 -15z"/>
<path d="M4200 715 c-7 -8 -16 -13 -19 -10 -4 2 -8 -2 -8 -10 0 -10 4 -12 12
-5 7 5 15 8 18 5 4 -3 5 -2 2 2 -3 3 0 12 6 20 6 7 9 13 6 13 -2 0 -10 -7 -17
-15z"/>
<path d="M4574 722 c4 -3 14 -7 22 -8 9 -1 13 0 10 4 -4 3 -14 7 -22 8 -9 1
-13 0 -10 -4z"/>
<path d="M2989 703 c-13 -16 -12 -17 4 -4 16 13 21 21 13 21 -2 0 -10 -8 -17
-17z"/>
<path d="M3786 705 c-11 -8 -15 -15 -9 -15 6 0 16 7 23 15 16 19 11 19 -14 0z"/>
<path d="M3107 699 c7 -7 15 -10 18 -7 3 3 -2 9 -12 12 -14 6 -15 5 -6 -5z"/>
<path d="M3235 701 c-3 -5 -2 -12 3 -15 5 -3 9 1 9 9 0 17 -3 19 -12 6z"/>
<path d="M3266 702 c-3 -5 1 -9 9 -9 8 0 12 4 9 9 -3 4 -7 8 -9 8 -2 0 -6 -4
-9 -8z"/>
<path d="M3590 699 c0 -5 5 -7 10 -4 6 3 10 8 10 11 0 2 -4 4 -10 4 -5 0 -10
-5 -10 -11z"/>
<path d="M3616 693 c-6 -14 -5 -15 5 -6 7 7 10 15 7 18 -3 3 -9 -2 -12 -12z"/>
<path d="M3670 699 c0 -5 5 -7 10 -4 6 3 10 8 10 11 0 2 -4 4 -10 4 -5 0 -10
-5 -10 -11z"/>
<path d="M3704 695 c-18 -15 -18 -15 0 -8 12 4 17 3 13 -4 -3 -5 0 -10 8 -10
10 0 12 4 5 12 -5 7 -7 15 -3 18 12 13 -3 7 -23 -8z"/>
<path d="M3850 706 c0 -2 7 -7 16 -10 8 -3 12 -2 9 4 -6 10 -25 14 -25 6z"/>
<path d="M3910 699 c0 -5 5 -7 10 -4 6 3 10 8 10 11 0 2 -4 4 -10 4 -5 0 -10
-5 -10 -11z"/>
<path d="M3960 695 c-7 -8 -9 -15 -4 -15 5 0 0 -7 -10 -15 -11 -8 -15 -15 -9
-15 13 0 39 30 27 30 -5 0 0 7 10 15 11 8 15 15 9 15 -6 0 -16 -7 -23 -15z"/>
<path d="M4010 702 c0 -4 10 -9 22 -9 18 -2 20 0 8 7 -18 12 -30 13 -30 2z"/>
<path d="M4256 698 c3 -5 10 -6 15 -3 13 9 11 12 -6 12 -8 0 -12 -4 -9 -9z"/>
<path d="M4446 698 c3 -5 10 -6 15 -3 13 9 11 12 -6 12 -8 0 -12 -4 -9 -9z"/>
<path d="M3828 683 c7 -3 16 -2 19 1 4 3 -2 6 -13 5 -11 0 -14 -3 -6 -6z"/>
<path d="M4119 673 c-13 -16 -12 -17 4 -4 16 13 21 21 13 21 -2 0 -10 -8 -17
-17z"/>
<path d="M4225 680 c-3 -6 1 -7 9 -4 18 7 21 14 7 14 -6 0 -13 -4 -16 -10z"/>
<path d="M4536 682 c-3 -5 1 -9 9 -9 8 0 12 4 9 9 -3 4 -7 8 -9 8 -2 0 -6 -4
-9 -8z"/>
<path d="M3655 670 c-4 -6 -11 -8 -16 -5 -5 4 -9 2 -9 -4 0 -5 8 -9 18 -8 10
0 19 7 19 14 0 16 -4 16 -12 3z"/>
<path d="M4022 664 c10 -10 20 -16 22 -13 3 3 -5 11 -17 18 -21 13 -21 12 -5
-5z"/>
<path d="M3307 659 c7 -7 15 -10 18 -7 3 3 -2 9 -12 12 -14 6 -15 5 -6 -5z"/>
<path d="M3346 658 c3 -5 10 -6 15 -3 13 9 11 12 -6 12 -8 0 -12 -4 -9 -9z"/>
<path d="M3750 663 c0 -6 8 -17 18 -24 16 -13 16 -13 2 6 -8 11 -16 22 -17 24
-2 2 -3 0 -3 -6z"/>
<path d="M3799 668 c-6 -20 -6 -39 0 -42 4 -3 7 6 7 20 0 20 -4 32 -7 22z"/>
<path d="M3825 659 c-3 -4 2 -6 10 -5 21 3 28 13 10 13 -9 0 -18 -4 -20 -8z"/>
<path d="M3877 652 c-15 -16 -15 -19 -2 -19 8 0 13 3 10 5 -3 3 0 11 6 19 17
20 5 16 -14 -5z"/>
<path d="M4176 662 c-3 -5 1 -9 9 -9 8 0 12 4 9 9 -3 4 -7 8 -9 8 -2 0 -6 -4
-9 -8z"/>
<path d="M4419 668 c-5 -18 -6 -38 -1 -34 7 8 12 36 6 36 -2 0 -4 -1 -5 -2z"/>
<path d="M4200 640 c-9 -6 -10 -10 -3 -10 6 0 15 5 18 10 8 12 4 12 -15 0z"/>
<path d="M3655 629 c-4 -6 -5 -12 -2 -15 2 -3 7 2 10 11 7 17 1 20 -8 4z"/>
<path d="M3379 628 c-5 -18 -6 -38 -1 -34 7 8 12 36 6 36 -2 0 -4 -1 -5 -2z"/>
<path d="M3621 616 c-9 -11 -9 -16 1 -22 7 -4 10 -4 6 1 -4 4 -3 14 3 22 6 7
9 13 6 13 -2 0 -10 -6 -16 -14z"/>
<path d="M3675 621 c-3 -5 -2 -12 3 -15 5 -3 9 1 9 9 0 17 -3 19 -12 6z"/>
<path d="M3313 595 c0 -8 4 -12 9 -9 5 3 6 10 3 15 -9 13 -12 11 -12 -6z"/>
<path d="M3790 606 c0 -2 7 -7 16 -10 8 -3 12 -2 9 4 -6 10 -25 14 -25 6z"/>
<path d="M3656 578 c3 -5 10 -6 15 -3 13 9 11 12 -6 12 -8 0 -12 -4 -9 -9z"/>
<path d="M3744 582 c4 -3 14 -7 22 -8 9 -1 13 0 10 4 -4 3 -14 7 -22 8 -9 1
-13 0 -10 -4z"/>
<path d="M4057 575 c-4 -8 -3 -16 1 -19 4 -3 9 4 9 15 2 23 -3 25 -10 4z"/>
<path d="M4270 579 c0 -5 5 -7 10 -4 6 3 10 8 10 11 0 2 -4 4 -10 4 -5 0 -10
-5 -10 -11z"/>
<path d="M3533 555 c0 -8 4 -12 9 -9 5 3 6 10 3 15 -9 13 -12 11 -12 -6z"/>
<path d="M3615 560 c3 -5 8 -10 11 -10 2 0 4 5 4 10 0 6 -5 10 -11 10 -5 0 -7
-4 -4 -10z"/>
<path d="M3895 560 c3 -5 8 -10 11 -10 2 0 4 5 4 10 0 6 -5 10 -11 10 -5 0 -7
-4 -4 -10z"/>
<path d="M4115 560 c3 -5 8 -10 11 -10 2 0 4 5 4 10 0 6 -5 10 -11 10 -5 0 -7
-4 -4 -10z"/>
<path d="M3790 541 c0 -6 4 -13 10 -16 6 -3 7 1 4 9 -7 18 -14 21 -14 7z"/>
</g>
</svg>
